<svg xmlns="http://www.w3.org/2000/svg" width="500" height="500" viewBox="0 0 500 500" version="1.1"><path d="M 275.250 4.743 C 279.512 4.931, 286.488 4.931, 290.750 4.743 C 295.012 4.556, 291.525 4.402, 283 4.402 C 274.475 4.402, 270.988 4.556, 275.250 4.743 M 258.264 5.718 C 259.784 5.947, 262.034 5.941, 263.264 5.704 C 264.494 5.467, 263.250 5.279, 260.500 5.286 C 257.750 5.294, 256.744 5.488, 258.264 5.718 M 304.250 5.716 C 305.762 5.945, 308.238 5.945, 309.750 5.716 C 311.262 5.487, 310.025 5.300, 307 5.300 C 303.975 5.300, 302.738 5.487, 304.250 5.716 M 246.750 6.706 C 247.988 6.944, 250.012 6.944, 251.250 6.706 C 252.488 6.467, 251.475 6.272, 249 6.272 C 246.525 6.272, 245.512 6.467, 246.750 6.706 M 316.750 6.706 C 317.988 6.944, 320.012 6.944, 321.250 6.706 C 322.488 6.467, 321.475 6.272, 319 6.272 C 316.525 6.272, 315.512 6.467, 316.750 6.706 M 232.250 8.689 C 233.213 8.941, 234.787 8.941, 235.750 8.689 C 236.713 8.438, 235.925 8.232, 234 8.232 C 232.075 8.232, 231.287 8.438, 232.250 8.689 M 333.250 8.689 C 334.212 8.941, 335.788 8.941, 336.750 8.689 C 337.712 8.438, 336.925 8.232, 335 8.232 C 333.075 8.232, 332.288 8.438, 333.250 8.689 M 219.500 11 C 216.805 11.686, 216.754 11.765, 219 11.782 C 220.375 11.792, 222.625 11.440, 224 11 C 225.959 10.373, 226.067 10.203, 224.500 10.218 C 223.400 10.228, 221.150 10.580, 219.500 11 M 205 14.500 C 200.332 16.298, 202.349 16.332, 208 14.552 C 210.475 13.772, 211.600 13.138, 210.500 13.143 C 209.400 13.148, 206.925 13.759, 205 14.500 M 379 20.415 C 380.375 21.150, 382.625 22.031, 384 22.373 C 385.375 22.715, 384.700 22.130, 382.500 21.072 C 377.975 18.896, 375.170 18.370, 379 20.415 M 180.500 22.536 C 176.462 24.385, 178.877 24.388, 183.135 22.539 C 184.986 21.736, 185.825 21.097, 185 21.120 C 184.175 21.144, 182.150 21.781, 180.500 22.536 M 390 25 C 391.925 26.054, 393.950 26.916, 394.500 26.916 C 395.050 26.916, 393.925 26.054, 392 25 C 390.075 23.946, 388.050 23.084, 387.500 23.084 C 386.950 23.084, 388.075 23.946, 390 25 M 164 29.500 C 161.525 30.825, 159.950 31.910, 160.500 31.910 C 161.050 31.910, 163.525 30.825, 166 29.500 C 168.475 28.175, 170.050 27.090, 169.500 27.090 C 168.950 27.090, 166.475 28.175, 164 29.500 M 402 30.449 C 402 30.724, 403.462 31.697, 405.250 32.611 C 410.556 35.326, 423.115 43.926, 428.750 48.704 C 431.637 51.152, 433.979 52.782, 433.953 52.327 C 433.814 49.908, 402 28.124, 402 30.449 M 152.162 34.979 C 148.097 37.249, 146.865 38.367, 149.530 37.366 C 152.321 36.319, 157.699 32.997, 156.500 33.061 C 155.950 33.091, 153.998 33.954, 152.162 34.979 M 135.250 44.566 C 132.912 45.967, 131 47.350, 131 47.638 C 131 48.177, 137.747 44.346, 139.450 42.840 C 141.169 41.320, 139.568 41.978, 135.250 44.566 M 118.658 55.423 C 113.795 58.922, 109.295 62.371, 108.658 63.087 C 108.021 63.803, 109.075 63.260, 111 61.880 C 112.925 60.500, 117.537 57.223, 121.250 54.598 C 126.995 50.535, 128.921 48.885, 127.750 49.031 C 127.612 49.048, 123.521 51.925, 118.658 55.423 M 440.500 59 C 443.766 62.300, 446.662 65, 446.937 65 C 447.212 65, 444.766 62.300, 441.500 59 C 438.234 55.700, 435.338 53, 435.063 53 C 434.788 53, 437.234 55.700, 440.500 59 M 273.250 63.689 C 274.212 63.941, 275.788 63.941, 276.750 63.689 C 277.712 63.438, 276.925 63.232, 275 63.232 C 273.075 63.232, 272.288 63.438, 273.250 63.689 M 100 69.620 C 85.437 82.085, 63.591 105.404, 55.567 117.049 C 53.544 119.985, 58.521 114.325, 66.668 104.426 C 74.726 94.634, 89.799 79.432, 101.500 69.296 C 104.800 66.437, 107.275 64.089, 107 64.077 C 106.725 64.065, 103.575 66.559, 100 69.620 M 264 65.046 C 262.905 65.787, 263.309 65.880, 265.500 65.390 C 269.177 64.567, 269.975 63.995, 267.417 64.015 C 266.363 64.024, 264.825 64.487, 264 65.046 M 291.633 67.950 C 298.087 71.161, 305.155 77.465, 307.598 82.190 C 308.398 83.736, 309.276 85, 309.551 85 C 309.826 85, 309.400 83.741, 308.604 82.201 C 305.326 75.861, 294.757 67.322, 288 65.553 C 286.625 65.193, 288.260 66.272, 291.633 67.950 M 450.281 70 C 455.842 77.262, 460.431 84.130, 463.477 89.755 C 465.043 92.645, 466.494 94.839, 466.702 94.631 C 467.654 93.679, 455.715 75.203, 450.386 69.380 L 446.834 65.500 450.281 70 M 253.845 69.979 C 251.372 71.617, 248.482 73.945, 247.424 75.151 C 246.366 76.357, 247.802 75.579, 250.616 73.422 C 253.430 71.265, 256.580 68.964, 257.616 68.309 C 258.652 67.654, 259.240 67.091, 258.921 67.059 C 258.603 67.026, 256.319 68.341, 253.845 69.979 M 242.083 82.066 C 238.974 87.598, 239.844 87.852, 243.212 82.395 C 244.703 79.978, 245.573 78, 245.146 78 C 244.718 78, 243.340 79.830, 242.083 82.066 M 311.600 90 C 311.946 91.375, 312.554 96.550, 312.952 101.500 L 313.676 110.500 313.762 102.500 C 313.814 97.640, 313.283 93.126, 312.410 91 C 311.619 89.075, 311.254 88.625, 311.600 90 M 153.728 104.722 C 155.503 104.943, 158.653 104.946, 160.728 104.730 C 162.802 104.513, 161.350 104.333, 157.500 104.328 C 153.650 104.324, 151.952 104.501, 153.728 104.722 M 171.865 107.539 C 173.715 108.343, 175.515 108.984, 175.865 108.965 C 177.166 108.892, 171.441 106.071, 170 106.075 C 169.175 106.077, 170.014 106.736, 171.865 107.539 M 472.573 109 C 472.941 110.375, 473.659 112.175, 474.169 113 C 474.813 114.042, 474.892 113.737, 474.427 112 C 474.059 110.625, 473.341 108.825, 472.831 108 C 472.187 106.958, 472.108 107.263, 472.573 109 M 135.861 110.757 C 129.441 114.998, 120.852 126.914, 121.056 131.297 C 121.087 131.959, 121.874 130.680, 122.806 128.456 C 125.675 121.608, 128.940 117.613, 137 111.090 C 140.082 108.596, 139.423 108.403, 135.861 110.757 M 181.382 113.067 C 184.066 115.439, 187.554 119.162, 189.132 121.340 C 190.709 123.518, 192 124.831, 192 124.258 C 192 122.740, 183.357 113.369, 179.663 110.883 C 177.923 109.711, 178.697 110.694, 181.382 113.067 M 238.086 112.283 C 237.999 114.089, 242.610 124, 243.537 124 C 243.814 124, 243.064 122.088, 241.869 119.750 C 240.675 117.412, 239.355 114.375, 238.935 113 C 238.423 111.323, 238.144 111.087, 238.086 112.283 M 310.249 117.250 C 309.174 120.188, 309.201 120.314, 310.530 118.559 C 311.802 116.879, 312.553 114, 311.719 114 C 311.565 114, 310.903 115.463, 310.249 117.250 M 247.500 129 C 249.648 131.200, 251.631 133, 251.906 133 C 252.181 133, 250.648 131.200, 248.500 129 C 246.352 126.800, 244.369 125, 244.094 125 C 243.819 125, 245.352 126.800, 247.500 129 M 45.708 131.250 C 40.352 139.522, 37.788 144, 38.410 144 C 38.725 144, 40.357 141.637, 42.036 138.750 C 43.716 135.863, 46.201 131.813, 47.560 129.750 C 48.918 127.688, 49.822 126, 49.568 126 C 49.314 126, 47.577 128.363, 45.708 131.250 M 193.168 129.051 C 193.753 130.729, 194.417 131.917, 194.644 131.690 C 195.139 131.195, 193.252 126, 192.577 126 C 192.317 126, 192.583 127.373, 193.168 129.051 M 297.640 132.573 C 294.417 135.008, 292.126 137, 292.549 137 C 293.460 137, 304 129.147, 304 128.468 C 304 127.772, 303.969 127.792, 297.640 132.573 M 383.776 136.733 C 386.128 136.945, 389.728 136.942, 391.776 136.727 C 393.824 136.512, 391.900 136.339, 387.500 136.343 C 383.100 136.346, 381.424 136.522, 383.776 136.733 M 119.310 142.500 C 119.315 145.800, 119.502 147.029, 119.725 145.232 C 119.947 143.435, 119.943 140.735, 119.715 139.232 C 119.486 137.729, 119.304 139.200, 119.310 142.500 M 374.500 138 C 373.239 138.542, 373.055 138.859, 374 138.859 C 374.825 138.859, 376.400 138.473, 377.500 138 C 378.761 137.458, 378.945 137.141, 378 137.141 C 377.175 137.141, 375.600 137.527, 374.500 138 M 401.276 139.422 C 404.452 140.729, 407.801 142.406, 408.717 143.149 C 410.118 144.284, 410.254 144.284, 409.569 143.147 C 408.629 141.586, 399.228 137.013, 397 137.034 C 396.175 137.041, 398.099 138.116, 401.276 139.422 M 196.286 142.500 C 196.294 145.250, 196.488 146.256, 196.718 144.736 C 196.947 143.216, 196.941 140.966, 196.704 139.736 C 196.467 138.506, 196.279 139.750, 196.286 142.500 M 263.500 139 C 264.600 139.473, 266.175 139.859, 267 139.859 C 267.945 139.859, 267.761 139.542, 266.500 139 C 265.400 138.527, 263.825 138.141, 263 138.141 C 262.055 138.141, 262.239 138.458, 263.500 139 M 367.500 141.319 C 363.381 143.682, 359.588 146.998, 357.002 150.500 C 356.189 151.600, 357.811 150.411, 360.605 147.857 C 363.399 145.303, 367.106 142.479, 368.843 141.581 C 370.579 140.683, 372 139.735, 372 139.474 C 372 138.765, 371.829 138.835, 367.500 141.319 M 271.750 140.723 C 273.538 140.945, 276.462 140.945, 278.250 140.723 C 280.038 140.502, 278.575 140.320, 275 140.320 C 271.425 140.320, 269.962 140.502, 271.750 140.723 M 481.272 144 C 481.272 146.475, 481.467 147.488, 481.706 146.250 C 481.944 145.012, 481.944 142.988, 481.706 141.750 C 481.467 140.512, 481.272 141.525, 481.272 144 M 414.419 148 C 419.660 154.106, 420.712 155.065, 418.260 151.500 C 417.124 149.850, 414.927 147.375, 413.376 146 C 411.503 144.340, 411.853 145.011, 414.419 148 M 31.448 156.102 C 29.481 160.009, 28.033 163.366, 28.230 163.563 C 28.427 163.760, 29.327 162.476, 30.230 160.711 C 34.312 152.732, 36.002 149, 35.533 149 C 35.254 149, 33.416 152.196, 31.448 156.102 M 120.141 151 C 120.141 151.825, 120.527 153.400, 121 154.500 C 121.542 155.761, 121.859 155.945, 121.859 155 C 121.859 154.175, 121.473 152.600, 121 151.500 C 120.458 150.239, 120.141 150.055, 120.141 151 M 482.378 162 C 482.378 168.325, 482.541 170.912, 482.739 167.750 C 482.937 164.588, 482.937 159.412, 482.739 156.250 C 482.541 153.088, 482.378 155.675, 482.378 162 M 421.824 158.954 C 422.746 161.128, 423.640 162.509, 423.811 162.022 C 424.126 161.122, 421.282 155, 420.549 155 C 420.329 155, 420.903 156.779, 421.824 158.954 M 122.009 157.300 C 121.972 160.473, 129.877 170.436, 135.404 174.181 C 137.107 175.335, 136.116 174.138, 133.202 171.520 C 130.288 168.902, 126.580 164.452, 124.961 161.630 C 123.343 158.809, 122.015 156.860, 122.009 157.300 M 184.072 169.785 C 180.537 173.417, 178.962 175.443, 180.572 174.286 C 183.384 172.266, 187.129 168.447, 189.922 164.750 C 192.284 161.625, 190.624 163.053, 184.072 169.785 M 23.642 173.041 C 22.189 176.391, 21.012 179.665, 21.027 180.316 C 21.042 180.967, 22.385 178.380, 24.011 174.567 C 25.637 170.754, 26.814 167.480, 26.625 167.292 C 26.437 167.104, 25.094 169.691, 23.642 173.041 M 425.252 171.500 C 425.263 173.700, 425.468 174.482, 425.707 173.238 C 425.946 171.994, 425.937 170.194, 425.687 169.238 C 425.437 168.282, 425.241 169.300, 425.252 171.500 M 348.232 175 C 348.232 176.925, 348.438 177.713, 348.689 176.750 C 348.941 175.787, 348.941 174.213, 348.689 173.250 C 348.438 172.287, 348.232 173.075, 348.232 175 M 173 177.500 C 171.625 178.286, 170.950 178.929, 171.500 178.929 C 172.050 178.929, 173.625 178.286, 175 177.500 C 176.375 176.714, 177.050 176.071, 176.500 176.071 C 175.950 176.071, 174.375 176.714, 173 177.500 M 252.250 178.030 C 249.912 179.068, 248 180.138, 248 180.408 C 248 180.677, 249.688 180.174, 251.750 179.288 C 253.813 178.403, 257.075 177.353, 259 176.954 C 262.395 176.252, 262.410 176.229, 259.500 176.186 C 257.850 176.161, 254.588 176.991, 252.250 178.030 M 271.679 176.961 C 273.427 177.378, 276.491 178.682, 278.489 179.861 C 280.486 181.039, 281.838 181.546, 281.492 180.987 C 280.441 179.287, 273.226 175.993, 270.790 176.102 C 269.033 176.181, 269.240 176.381, 271.679 176.961 M 425.136 178 C 425.046 179.375, 424.741 181.625, 424.458 183 L 423.944 185.500 425.018 183.039 C 425.609 181.685, 425.914 179.435, 425.696 178.039 L 425.300 175.500 425.136 178 M 481.252 179.500 C 481.263 181.700, 481.468 182.482, 481.707 181.238 C 481.946 179.994, 481.937 178.194, 481.687 177.238 C 481.437 176.282, 481.241 177.300, 481.252 179.500 M 155.750 181.706 C 156.988 181.944, 159.012 181.944, 160.250 181.706 C 161.488 181.467, 160.475 181.272, 158 181.272 C 155.525 181.272, 154.512 181.467, 155.750 181.706 M 238.669 186.250 C 235.584 188.588, 233.047 190.843, 233.030 191.262 C 233.014 191.680, 235.588 189.934, 238.750 187.380 C 245.782 181.701, 245.446 182, 244.805 182 C 244.515 182, 241.754 183.912, 238.669 186.250 M 284.961 185.189 C 286.082 186.392, 287 187.817, 287 188.355 C 287 188.893, 287.261 189.072, 287.580 188.753 C 288.323 188.011, 285.071 183, 283.846 183 C 283.338 183, 283.840 183.985, 284.961 185.189 M 421.649 190.521 C 418.063 199.216, 407.919 208.027, 398 211.063 C 396.330 211.574, 396.090 211.857, 397.279 211.914 C 400.296 212.060, 410.285 206.392, 414.589 202.092 C 418.782 197.903, 424.407 188.708, 423.825 186.994 C 423.646 186.466, 422.667 188.054, 421.649 190.521 M 352 190.723 C 352 193.577, 365.335 208.090, 367.845 207.968 C 368.205 207.951, 367.790 207.388, 366.923 206.718 C 361.479 202.513, 358.484 199.434, 355.444 194.917 C 353.550 192.102, 352 190.215, 352 190.723 M 225.435 199.221 C 218.150 208.303, 217.638 209, 218.257 209 C 218.534 209, 220.556 206.637, 222.751 203.750 C 224.946 200.863, 227.950 197.212, 229.426 195.639 C 230.903 194.065, 231.923 192.589, 231.693 192.359 C 231.463 192.130, 228.647 195.217, 225.435 199.221 M 290.252 199.500 C 290.263 201.700, 290.468 202.482, 290.707 201.238 C 290.946 199.994, 290.937 198.194, 290.687 197.238 C 290.437 196.282, 290.241 197.300, 290.252 199.500 M 252.357 202.316 C 246.826 206.388, 241.597 212.026, 235.957 220 C 232.979 224.211, 228.287 232.910, 229.755 231.500 C 230.327 230.950, 231.629 228.923, 232.648 226.996 C 237.682 217.472, 246.693 207.038, 254.232 202.004 C 257.530 199.802, 259.776 198, 259.224 198 C 258.672 198, 255.582 199.942, 252.357 202.316 M 288.571 206.571 C 288.204 208.037, 288.096 209.429, 288.331 209.665 C 288.567 209.900, 289.061 208.894, 289.429 207.429 C 289.796 205.963, 289.904 204.571, 289.669 204.335 C 289.433 204.100, 288.939 205.106, 288.571 206.571 M 473.615 211.615 C 472.730 214.213, 472.179 216.512, 472.390 216.724 C 472.602 216.935, 473.499 214.983, 474.385 212.385 C 475.270 209.787, 475.821 207.488, 475.610 207.276 C 475.398 207.065, 474.501 209.017, 473.615 211.615 M 215.771 212.250 C 213.583 215.623, 211.621 219.640, 212.718 218.500 C 214.120 217.043, 218.245 210, 217.697 210 C 217.440 210, 216.573 211.012, 215.771 212.250 M 286.624 212.539 C 286.281 213.432, 286.052 215.364, 286.115 216.832 C 286.201 218.830, 286.426 218.496, 287.010 215.500 C 287.838 211.249, 287.655 209.850, 286.624 212.539 M 264.300 223 C 264.300 226.025, 264.487 227.262, 264.716 225.750 C 264.945 224.238, 264.945 221.762, 264.716 220.250 C 264.487 218.738, 264.300 219.975, 264.300 223 M 209.731 223.146 C 208.779 224.805, 208.020 226.688, 208.044 227.331 C 208.069 227.974, 209.001 226.770, 210.116 224.656 C 212.533 220.074, 212.214 218.820, 209.731 223.146 M 8.232 226 C 8.232 227.925, 8.438 228.713, 8.689 227.750 C 8.941 226.787, 8.941 225.213, 8.689 224.250 C 8.438 223.287, 8.232 224.075, 8.232 226 M 467.974 225.567 C 467.438 226.979, 466.494 229.117, 465.877 230.317 C 465.141 231.749, 465.123 232.156, 465.825 231.500 C 467.109 230.300, 470.256 223, 469.489 223 C 469.193 223, 468.511 224.155, 467.974 225.567 M 115.865 225.539 C 117.715 226.343, 119.515 226.984, 119.865 226.965 C 121.166 226.892, 115.441 224.071, 114 224.075 C 113.175 224.077, 114.014 224.736, 115.865 225.539 M 121.500 227.653 C 122.050 228.174, 124.588 230.255, 127.141 232.278 C 129.693 234.300, 133.181 238.067, 134.891 240.649 C 136.601 243.231, 138 244.856, 138 244.261 C 138 242.560, 130.431 233.423, 126.793 230.731 C 123.107 228.004, 119.903 226.141, 121.500 227.653 M 74.881 234.750 C 71.279 238.583, 68 243.323, 68 244.697 C 68 245.119, 69.187 243.672, 70.637 241.482 C 72.088 239.292, 74.651 236.037, 76.333 234.250 C 78.016 232.463, 79.170 231, 78.899 231 C 78.628 231, 76.820 232.688, 74.881 234.750 M 266.040 232.316 C 265.948 234.198, 268.653 237.911, 274.917 244.500 C 278.577 248.350, 283.065 253.300, 284.890 255.500 C 286.714 257.700, 287.703 258.502, 287.086 257.283 C 286.470 256.064, 282.214 251.114, 277.630 246.283 C 273.046 241.452, 268.572 236.150, 267.687 234.500 C 266.803 232.850, 266.062 231.867, 266.040 232.316 M 204.116 238.098 C 203.502 239.858, 203.030 242.244, 203.067 243.399 C 203.105 244.555, 203.740 243.250, 204.479 240.500 C 206.011 234.802, 205.785 233.309, 204.116 238.098 M 461.097 238.560 C 459.942 240.518, 459.451 241.840, 460.005 241.497 C 461.089 240.827, 464.335 235, 463.624 235 C 463.390 235, 462.252 236.602, 461.097 238.560 M 6.272 240 C 6.272 242.475, 6.467 243.488, 6.706 242.250 C 6.944 241.012, 6.944 238.988, 6.706 237.750 C 6.467 236.512, 6.272 237.525, 6.272 240 M 298.792 239.500 C 305.026 247.331, 306.110 248.440, 303.191 244 C 301.564 241.525, 299.192 238.600, 297.920 237.500 C 296.373 236.162, 296.661 236.824, 298.792 239.500 M 455.997 246.250 C 454.525 248.261, 454.283 248.960, 455.363 248.082 C 457.003 246.751, 459.483 243, 458.723 243 C 458.532 243, 457.305 244.463, 455.997 246.250 M 5.272 250 C 5.272 252.475, 5.467 253.488, 5.706 252.250 C 5.944 251.012, 5.944 248.988, 5.706 247.750 C 5.467 246.512, 5.272 247.525, 5.272 250 M 138.157 246.500 C 138.154 247.050, 138.759 249.075, 139.500 251 C 140.241 252.925, 140.862 253.825, 140.879 253 C 140.896 252.175, 140.292 250.150, 139.536 248.500 C 138.781 246.850, 138.160 245.950, 138.157 246.500 M 223.232 251 C 223.232 252.925, 223.438 253.713, 223.689 252.750 C 223.941 251.787, 223.941 250.213, 223.689 249.250 C 223.438 248.287, 223.232 249.075, 223.232 251 M 308.202 253.478 C 309.398 255.941, 310.549 257.785, 310.758 257.575 C 311.211 257.123, 307.170 249, 306.493 249 C 306.236 249, 307.005 251.015, 308.202 253.478 M 445.568 258.643 C 437.279 267.546, 429.803 273.754, 421.705 278.458 C 419.067 279.990, 417.135 281.468, 417.411 281.744 C 418.447 282.780, 435.164 270.558, 442.259 263.577 C 448.439 257.496, 454.989 249.837, 453.818 250.061 C 453.643 250.094, 449.930 253.956, 445.568 258.643 M 201.349 260 C 201.349 264.675, 201.522 266.587, 201.732 264.250 C 201.943 261.913, 201.943 258.087, 201.732 255.750 C 201.522 253.412, 201.349 255.325, 201.349 260 M 64.100 261.083 C 64.155 264.063, 64.551 267.625, 64.981 269 C 65.421 270.411, 65.536 268.232, 65.243 264 C 64.628 255.117, 63.958 253.409, 64.100 261.083 M 141.310 261.500 C 141.315 264.800, 141.502 266.029, 141.725 264.232 C 141.947 262.435, 141.943 259.735, 141.715 258.232 C 141.486 256.729, 141.304 258.200, 141.310 261.500 M 222.272 260 C 222.272 262.475, 222.467 263.488, 222.706 262.250 C 222.944 261.012, 222.944 258.988, 222.706 257.750 C 222.467 256.512, 222.272 257.525, 222.272 260 M 4.392 270 C 4.392 277.425, 4.549 280.462, 4.742 276.750 C 4.934 273.038, 4.934 266.962, 4.742 263.250 C 4.549 259.538, 4.392 262.575, 4.392 270 M 288 260.577 C 288 261.140, 288.480 262.080, 289.067 262.667 C 289.654 263.254, 290.980 266.381, 292.013 269.617 C 293.047 272.853, 293.917 274.769, 293.946 273.876 C 293.976 272.982, 293.339 270.379, 292.532 268.090 C 291.009 263.775, 288 258.786, 288 260.577 M 312.588 264.502 C 314.521 272.224, 315.828 276.368, 315.899 275 C 315.999 273.058, 313.322 262.989, 312.482 262.149 C 312.127 261.794, 312.175 262.853, 312.588 264.502 M 223.232 269 C 223.232 270.925, 223.438 271.712, 223.689 270.750 C 223.941 269.788, 223.941 268.212, 223.689 267.250 C 223.438 266.288, 223.232 267.075, 223.232 269 M 66 273.168 C 66 274.725, 72.401 285.845, 74.250 287.500 C 74.864 288.050, 74.503 287.150, 73.447 285.500 C 72.390 283.850, 70.283 280.074, 68.763 277.109 C 67.243 274.144, 66 272.371, 66 273.168 M 225.597 278 C 226.477 281.497, 231.028 289.788, 232.879 291.267 C 233.728 291.945, 233.410 291.057, 232.173 289.292 C 230.936 287.528, 228.809 283.703, 227.446 280.792 C 226.084 277.882, 225.252 276.625, 225.597 278 M 135.607 280.750 C 133.597 284.575, 126.562 291.658, 122.882 293.561 C 121.195 294.433, 120.055 295.388, 120.349 295.683 C 121.161 296.494, 127.025 292.192, 131.341 287.618 C 134.924 283.822, 138.683 278, 137.551 278 C 137.276 278, 136.401 279.238, 135.607 280.750 M 316.286 282.500 C 316.294 285.250, 316.488 286.256, 316.718 284.736 C 316.947 283.216, 316.941 280.966, 316.704 279.736 C 316.467 278.506, 316.279 279.750, 316.286 282.500 M 295.232 284 C 295.232 285.925, 295.438 286.712, 295.689 285.750 C 295.941 284.788, 295.941 283.212, 295.689 282.250 C 295.438 281.288, 295.232 282.075, 295.232 284 M 205.545 285.250 C 205.919 286.488, 206.636 287.940, 207.140 288.477 C 207.643 289.015, 207.548 288.002, 206.929 286.227 C 205.663 282.594, 204.493 281.769, 205.545 285.250 M 409 285 C 407.075 286.054, 405.950 286.916, 406.500 286.916 C 407.050 286.916, 409.075 286.054, 411 285 C 412.925 283.946, 414.050 283.084, 413.500 283.084 C 412.950 283.084, 410.925 283.946, 409 285 M 5.286 289.500 C 5.294 292.250, 5.488 293.256, 5.718 291.736 C 5.947 290.216, 5.941 287.966, 5.704 286.736 C 5.467 285.506, 5.279 286.750, 5.286 289.500 M 317.566 289.311 C 317.938 290.280, 319.650 291.784, 321.371 292.651 C 323.092 293.519, 324.050 293.833, 323.500 293.349 C 317.078 287.703, 316.903 287.584, 317.566 289.311 M 294.651 292.253 C 294.274 293.758, 291.241 298.255, 287.912 302.245 L 281.860 309.500 287.489 303.500 C 293.469 297.126, 296.371 292.614, 295.730 290.690 C 295.515 290.044, 295.029 290.747, 294.651 292.253 M 390.500 291 C 387.778 291.693, 387.732 291.768, 390 291.811 C 391.375 291.838, 393.400 291.473, 394.500 291 C 396.966 289.940, 394.664 289.940, 390.500 291 M 372.768 293.725 C 374.565 293.947, 377.265 293.943, 378.768 293.715 C 380.271 293.486, 378.800 293.304, 375.500 293.310 C 372.200 293.315, 370.971 293.502, 372.768 293.725 M 325.442 294.906 C 325.759 295.419, 328.096 297.001, 330.635 298.420 C 335.389 301.076, 339.412 301.657, 341.948 300.053 C 342.900 299.451, 342.031 299.320, 339.416 299.671 C 336.174 300.106, 334.455 299.627, 330.150 297.089 C 327.243 295.375, 325.124 294.392, 325.442 294.906 M 85 295.577 C 85 296.252, 90.195 298.139, 90.690 297.644 C 90.917 297.417, 89.729 296.753, 88.051 296.168 C 86.373 295.583, 85 295.317, 85 295.577 M 238.500 297.896 C 240.150 299.679, 243.750 302.863, 246.500 304.972 C 251.512 308.815, 265 316.624, 265 315.682 C 265 315.406, 261.620 313.325, 257.488 311.058 C 253.356 308.790, 246.719 304.172, 242.738 300.795 C 238.757 297.418, 236.850 296.113, 238.500 297.896 M 6.272 301 C 6.272 303.475, 6.467 304.488, 6.706 303.250 C 6.944 302.012, 6.944 299.988, 6.706 298.750 C 6.467 297.512, 6.272 298.525, 6.272 301 M 345.500 298 C 344.239 298.542, 344.055 298.859, 345 298.859 C 345.825 298.859, 347.400 298.473, 348.500 298 C 349.761 297.458, 349.945 297.141, 349 297.141 C 348.175 297.141, 346.600 297.527, 345.500 298 M 212.910 299.832 C 213.450 300.840, 214.676 302.302, 215.637 303.082 C 216.717 303.960, 216.475 303.261, 215.003 301.250 C 212.377 297.662, 211.392 296.995, 212.910 299.832 M 99.750 299.723 C 101.537 299.945, 104.463 299.945, 106.250 299.723 C 108.037 299.502, 106.575 299.320, 103 299.320 C 99.425 299.320, 97.963 299.502, 99.750 299.723 M 298.658 314.365 C 291.859 322.014, 289 325.594, 289 326.460 C 289 326.814, 291.363 324.329, 294.250 320.938 C 297.137 317.546, 300.625 313.469, 302 311.877 C 303.375 310.285, 305.279 308.986, 306.231 308.991 C 307.182 308.996, 310.445 310.589, 313.481 312.531 C 316.516 314.473, 319 315.836, 319 315.561 C 319 314.532, 307.889 308, 306.138 308 C 305.136 308, 301.769 310.864, 298.658 314.365 M 277.765 313.527 C 275.710 315.437, 274.384 317, 274.819 317 C 275.253 317, 277.134 315.425, 279 313.500 C 283.353 309.009, 282.607 309.025, 277.765 313.527 M 267 316.986 C 267.825 317.527, 269.587 317.976, 270.917 317.985 C 274.126 318.005, 273.313 317.436, 269 316.645 C 266.538 316.193, 265.945 316.294, 267 316.986 M 321.527 317.347 C 326.298 320.604, 329 322.195, 329 321.748 C 329 321.113, 321.259 316, 320.299 316 C 319.890 316, 320.443 316.606, 321.527 317.347 M 233.012 320.699 C 233.019 321.140, 234.594 322.517, 236.512 323.759 C 241.007 326.671, 241 326, 236.500 322.568 C 234.575 321.100, 233.006 320.259, 233.012 320.699 M 331.915 323.706 C 333.243 324.693, 336.168 326.532, 338.415 327.794 C 340.662 329.056, 341.413 329.281, 340.085 328.294 C 338.757 327.307, 335.832 325.468, 333.585 324.206 C 331.338 322.944, 330.587 322.719, 331.915 323.706 M 241.500 326.702 C 242.050 327.270, 244.750 328.993, 247.500 330.532 C 250.250 332.070, 252.050 332.865, 251.500 332.298 C 250.950 331.730, 248.250 330.007, 245.500 328.468 C 242.750 326.930, 240.950 326.135, 241.500 326.702 M 291.978 330.970 C 293.142 332.603, 294.604 334.255, 295.228 334.641 C 295.852 335.027, 295.103 333.690, 293.563 331.671 C 290.220 327.289, 288.960 326.731, 291.978 330.970 M 345 331.866 C 346.375 332.985, 349.300 334.843, 351.500 335.996 C 356.508 338.620, 352.735 335.679, 346.585 332.166 C 343.212 330.239, 342.936 330.187, 345 331.866 M 254.559 334.468 C 255.626 335.276, 256.950 335.936, 257.500 335.936 C 258.050 335.936, 257.626 335.276, 256.559 334.468 C 255.491 333.661, 254.168 333, 253.618 333 C 253.068 333, 253.491 333.661, 254.559 334.468 M 13.067 336.101 C 12.990 337.942, 15.061 344.273, 15.572 343.761 C 15.760 343.574, 15.288 341.413, 14.523 338.960 C 13.759 336.507, 13.104 335.220, 13.067 336.101 M 297.646 338.250 C 298.743 339.488, 303.122 344.887, 307.378 350.250 C 311.633 355.613, 315.321 360, 315.572 360 C 315.824 360, 313.965 357.413, 311.442 354.250 C 308.919 351.087, 304.750 345.697, 302.177 342.270 C 299.605 338.844, 297.084 336.032, 296.576 336.020 C 296.067 336.009, 296.549 337.012, 297.646 338.250 M 356 338.324 C 356 338.629, 360.163 341.449, 365.250 344.591 C 370.337 347.732, 375.512 350.961, 376.750 351.766 C 377.988 352.571, 379 352.981, 379 352.676 C 379 352.371, 374.837 349.551, 369.750 346.409 C 364.663 343.268, 359.488 340.039, 358.250 339.234 C 357.012 338.429, 356 338.019, 356 338.324 M 273.612 342.189 C 277.372 346.190, 295.161 368.692, 296.783 371.500 C 297.419 372.600, 297.953 372.995, 297.970 372.377 C 297.986 371.760, 295.738 368.385, 292.974 364.877 C 290.210 361.370, 284.698 354.359, 280.724 349.297 C 276.751 344.236, 272.825 339.821, 272 339.486 C 271.175 339.151, 271.900 340.367, 273.612 342.189 M 162.500 350.047 C 161.106 350.678, 161.712 350.768, 164.500 350.344 C 166.700 350.009, 168.688 349.569, 168.917 349.367 C 169.776 348.610, 164.420 349.177, 162.500 350.047 M 18.063 351.519 C 17.978 352.888, 23.972 367.239, 25.153 368.494 C 25.932 369.323, 23.971 364.243, 18.977 352.500 C 18.510 351.400, 18.098 350.959, 18.063 351.519 M 152.861 354.059 L 150.500 356.119 153.500 354.362 C 157.448 352.050, 157.507 352, 156.277 352 C 155.697 352, 154.159 352.927, 152.861 354.059 M 191 354.579 C 193.475 355.984, 197.297 358.791, 199.494 360.817 C 203.430 364.447, 203.444 364.451, 200.494 361.116 C 197.395 357.613, 189.405 351.991, 187.554 352.012 C 186.974 352.019, 188.525 353.174, 191 354.579 M 382.115 354.851 C 384.531 356.725, 389.942 359.757, 388.974 358.693 C 388.056 357.684, 380.936 353, 380.321 353 C 379.996 353, 380.803 353.833, 382.115 354.851 M 146.245 358.750 C 142.481 362.005, 136 371.524, 136 373.797 C 136 374.675, 137.170 373.045, 138.600 370.175 C 140.030 367.306, 143.215 362.943, 145.679 360.479 C 150.735 355.423, 150.989 354.647, 146.245 358.750 M 320.478 366.868 C 323.181 370.309, 325.853 373.409, 326.416 373.757 C 326.978 374.104, 325.226 371.573, 322.522 368.132 C 319.819 364.691, 317.147 361.591, 316.584 361.243 C 316.022 360.896, 317.774 363.427, 320.478 366.868 M 393 361.350 C 393 361.581, 396.172 363.687, 400.048 366.029 C 408.095 370.891, 409.362 372.040, 420.997 385.020 C 425.671 390.234, 431.689 396.750, 434.371 399.500 C 437.053 402.250, 433.679 398.277, 426.874 390.671 C 420.068 383.065, 413.638 375.702, 412.585 374.308 C 410.350 371.353, 393 359.873, 393 361.350 M 205.204 368.933 C 206.449 371.096, 207.639 372.695, 207.848 372.486 C 208.280 372.054, 204.078 365, 203.389 365 C 203.142 365, 203.959 366.770, 205.204 368.933 M 26.071 370.500 C 26.071 371.050, 26.714 372.625, 27.500 374 C 28.286 375.375, 28.929 376.050, 28.929 375.500 C 28.929 374.950, 28.286 373.375, 27.500 372 C 26.714 370.625, 26.071 369.950, 26.071 370.500 M 208.141 375 C 208.141 375.825, 208.527 377.400, 209 378.500 C 209.542 379.761, 209.859 379.945, 209.859 379 C 209.859 378.175, 209.473 376.600, 209 375.500 C 208.458 374.239, 208.141 374.055, 208.141 375 M 298.382 385.500 C 298.384 392.100, 298.546 394.670, 298.741 391.211 C 298.937 387.752, 298.936 382.352, 298.738 379.211 C 298.540 376.070, 298.380 378.900, 298.382 385.500 M 32.433 383.500 C 34.495 387.350, 36.652 390.950, 37.225 391.500 C 38.534 392.756, 31.052 378.864, 29.685 377.500 C 29.134 376.950, 30.370 379.650, 32.433 383.500 M 332.813 382.589 C 333.965 384.288, 335.715 386.313, 336.703 387.089 C 338.380 388.406, 338.400 388.367, 337 386.512 C 336.175 385.418, 334.424 383.393, 333.110 382.012 L 330.720 379.500 332.813 382.589 M 210.320 388 C 210.320 391.575, 210.502 393.038, 210.723 391.250 C 210.945 389.462, 210.945 386.538, 210.723 384.750 C 210.502 382.962, 210.320 384.425, 210.320 388 M 133.286 387.500 C 133.294 390.250, 133.488 391.256, 133.718 389.736 C 133.947 388.216, 133.941 385.966, 133.704 384.736 C 133.467 383.506, 133.279 384.750, 133.286 387.500 M 340.989 392.986 C 342.725 395.178, 344.668 397.295, 345.307 397.690 C 345.945 398.084, 344.733 396.290, 342.613 393.703 C 340.493 391.117, 338.550 389, 338.296 389 C 338.041 389, 339.253 390.794, 340.989 392.986 M 39.668 396.015 C 40.648 397.674, 42.495 400.261, 43.774 401.765 C 45.053 403.269, 44.438 401.913, 42.408 398.750 C 38.561 392.757, 36.569 390.769, 39.668 396.015 M 208.571 397.571 C 208.204 399.037, 208.096 400.429, 208.331 400.665 C 208.567 400.900, 209.061 399.894, 209.429 398.429 C 209.796 396.963, 209.904 395.571, 209.669 395.335 C 209.433 395.100, 208.939 396.106, 208.571 397.571 M 135.602 400 C 136.363 403.139, 140.632 410.654, 142.209 411.629 C 142.860 412.032, 142.404 410.972, 141.196 409.275 C 139.987 407.577, 138.098 404.234, 136.997 401.844 C 135.897 399.455, 135.269 398.625, 135.602 400 M 348.362 402 C 349.803 403.925, 352.898 408.074, 355.241 411.221 C 357.583 414.367, 359.867 416.955, 360.316 416.971 C 361.144 417, 354.563 408.401, 348.861 402 L 345.742 398.500 348.362 402 M 447.373 414.305 C 452.253 419.637, 456.465 424, 456.731 424 C 457.379 424, 441.064 406.153, 439.625 405.287 C 439.006 404.914, 442.493 408.972, 447.373 414.305 M 50.573 411.750 C 62.514 427.679, 80.554 446.097, 94.197 456.285 C 102.890 462.776, 114.974 470.433, 122.722 474.359 C 131.388 478.750, 130.097 477.287, 121 472.406 C 96.138 459.067, 72.717 439.125, 55.049 416.250 C 51.544 411.712, 48.471 408, 48.220 408 C 47.968 408, 49.028 409.688, 50.573 411.750 M 294.571 412.571 C 294.204 414.037, 294.096 415.429, 294.331 415.665 C 294.567 415.900, 295.061 414.894, 295.429 413.429 C 295.796 411.963, 295.904 410.571, 295.669 410.335 C 295.433 410.100, 294.939 411.106, 294.571 412.571 M 198.962 414.539 C 197.076 416.485, 192.866 419.410, 189.607 421.039 C 183.414 424.133, 183.208 425.065, 189.277 422.529 C 192.374 421.235, 204.386 411.137, 202.946 411.038 C 202.642 411.017, 200.849 412.592, 198.962 414.539 M 143.617 414.296 C 144.161 415.557, 153.991 422.380, 154.460 421.822 C 154.609 421.645, 152.113 419.608, 148.914 417.296 C 145.715 414.983, 143.331 413.633, 143.617 414.296 M 362.016 419.609 C 363.051 421.230, 375.708 430.507, 405.214 451.276 C 408.947 453.903, 412 455.828, 412 455.554 C 412 455.280, 402.663 448.455, 391.250 440.387 C 379.837 432.319, 368.319 423.918, 365.654 421.718 C 362.988 419.518, 361.351 418.569, 362.016 419.609 M 288.154 429.154 C 286.942 431.425, 286.106 433.439, 286.296 433.629 C 286.486 433.820, 287.634 432.117, 288.846 429.846 C 290.058 427.575, 290.894 425.561, 290.704 425.371 C 290.514 425.180, 289.366 426.883, 288.154 429.154 M 461 429.373 C 462.925 431.573, 464.950 433.893, 465.500 434.530 C 469.746 439.441, 475.238 445.094, 475.504 444.826 C 475.681 444.647, 471.703 440.197, 466.663 434.937 C 461.623 429.677, 459.075 427.174, 461 429.373 M 280.997 441.250 C 279.525 443.261, 279.283 443.960, 280.363 443.082 C 282.003 441.751, 284.483 438, 283.723 438 C 283.532 438, 282.305 439.462, 280.997 441.250 M 271 452.851 C 266.875 457.111, 260.350 462.791, 256.500 465.472 C 248.305 471.178, 246.148 473.052, 250.834 470.392 C 255.685 467.638, 268.936 456.856, 273 452.354 C 281.940 442.451, 280.791 442.736, 271 452.851 M 483.236 454 C 487.340 458.675, 491.424 463.850, 492.309 465.500 C 493.195 467.150, 493.936 468.050, 493.956 467.500 C 494.025 465.619, 490.142 460.500, 482.957 453 L 475.773 445.500 483.236 454 M 413 456.277 C 413 456.468, 414.462 457.695, 416.250 459.003 C 418.261 460.475, 418.960 460.717, 418.082 459.637 C 416.751 457.997, 413 455.517, 413 456.277 M 423 463.364 C 423 463.639, 424.350 464.825, 426 466 C 427.650 467.175, 429 467.911, 429 467.636 C 429 467.361, 427.650 466.175, 426 465 C 424.350 463.825, 423 463.089, 423 463.364 M 430 468.309 C 430 468.582, 436.188 473.195, 443.750 478.559 C 451.313 483.924, 458.149 488.806, 458.942 489.407 C 460.016 490.221, 460.202 490.197, 459.672 489.314 C 459.281 488.661, 454.718 485.189, 449.532 481.599 C 444.346 478.008, 437.829 473.437, 435.051 471.441 C 432.273 469.445, 430 468.036, 430 468.309 M 495.252 476.500 C 495.263 478.700, 495.468 479.482, 495.707 478.238 C 495.946 476.994, 495.937 475.194, 495.687 474.238 C 495.437 473.282, 495.241 474.300, 495.252 476.500 M 237.707 476.455 C 232.232 479.080, 230.208 480.632, 234.278 479.084 C 238.100 477.631, 243 475.041, 243 474.474 C 243 473.880, 243.366 473.743, 237.707 476.455 M 132 478.321 C 132 479.049, 143.155 483.179, 143.686 482.648 C 143.918 482.415, 142.172 481.547, 139.804 480.718 C 137.437 479.890, 134.713 478.891, 133.750 478.499 C 132.787 478.107, 132 478.027, 132 478.321 M 492.500 485.398 C 491.400 487.653, 488.971 490.510, 487.102 491.749 C 485.233 492.987, 484.186 494, 484.775 494 C 487.709 494, 495.751 484.449, 494.811 482.082 C 494.640 481.651, 493.600 483.144, 492.500 485.398 M 206 487 C 204.041 487.627, 203.933 487.797, 205.500 487.782 C 206.600 487.772, 208.850 487.420, 210.500 487 C 213.195 486.314, 213.246 486.235, 211 486.218 C 209.625 486.208, 207.375 486.560, 206 487 M 167.750 488.706 C 168.988 488.944, 171.012 488.944, 172.250 488.706 C 173.488 488.467, 172.475 488.272, 170 488.272 C 167.525 488.272, 166.512 488.467, 167.750 488.706 M 196.750 488.706 C 197.988 488.944, 200.012 488.944, 201.250 488.706 C 202.488 488.467, 201.475 488.272, 199 488.272 C 196.525 488.272, 195.512 488.467, 196.750 488.706 M 180.776 489.733 C 183.128 489.945, 186.728 489.942, 188.776 489.727 C 190.824 489.512, 188.900 489.339, 184.500 489.343 C 180.100 489.346, 178.424 489.522, 180.776 489.733 M 461.857 491.327 C 463.340 493.115, 469.827 495.506, 470.734 494.600 C 471.063 494.270, 470.689 494, 469.902 494 C 469.115 494, 466.689 493.045, 464.512 491.878 C 461.685 490.363, 460.926 490.206, 461.857 491.327 M 473.750 495.706 C 474.988 495.944, 477.012 495.944, 478.250 495.706 C 479.488 495.467, 478.475 495.272, 476 495.272 C 473.525 495.272, 472.512 495.467, 473.750 495.706" stroke="none" fill="#e69f72" fill-rule="evenodd"/><path d="M 253 6.512 C 176.961 14.278, 110.008 50.453, 62.390 109.500 C 55.393 118.176, 48.703 127.822, 40.543 141 C 36.886 146.906, 28.194 164.545, 24.139 174.289 C 5.172 219.861, 0.251 271.051, 10.083 320.500 C 18.323 361.937, 40.196 402.722, 71.413 434.853 C 97.333 461.533, 128.706 479.904, 159.978 486.715 C 169.626 488.816, 196.734 489.074, 206 487.152 C 250.838 477.852, 284.748 449.051, 295.073 411.500 C 297.791 401.617, 299.020 375.774, 296.955 371.916 C 295.403 369.016, 273.895 341.920, 271.928 340.387 C 271.143 339.774, 268.485 338.965, 266.022 338.588 C 258.976 337.511, 239.548 326.848, 230.883 319.303 C 203.298 295.284, 194.666 265.469, 205.955 233.212 C 214.343 209.246, 230.529 189.317, 249.500 179.596 C 255.866 176.334, 257.250 176.009, 264.790 176.005 C 274.161 175.999, 278.136 177.495, 284.051 183.253 C 287.556 186.665, 291 194.722, 291 199.509 C 291 200.763, 290.124 204.649, 289.053 208.145 C 287.982 211.640, 286.809 216.784, 286.447 219.575 L 285.789 224.649 292.959 232.075 C 301.928 241.364, 307.628 249.559, 311.170 258.259 C 314.255 265.834, 317 277.892, 317 283.869 C 317 288.415, 319.135 290.639, 329.119 296.490 C 335.702 300.348, 337.853 300.667, 343.624 298.637 C 349.853 296.447, 362.618 294.180, 375.085 293.052 C 403.994 290.434, 425.059 280.292, 445.021 259.379 C 458.336 245.429, 467.967 228.961, 474.259 209.381 C 480.927 188.632, 482.507 177.121, 481.655 155.500 C 479.223 93.740, 442.958 45.592, 380.387 21.048 C 346.622 7.805, 296.426 2.076, 253 6.512 M 268.500 63.888 C 257.194 65.883, 244.973 75.290, 240.475 85.462 C 232.290 103.969, 238.187 124.293, 254.803 134.841 C 273.277 146.570, 297.433 140.596, 308.752 121.500 C 316.818 107.893, 315.447 90.309, 305.322 77.505 C 301.881 73.154, 293.916 67.549, 288.477 65.652 C 283.292 63.844, 273.603 62.988, 268.500 63.888 M 147.446 105.479 C 134.888 109.446, 125.630 118.001, 121.408 129.536 C 118.748 136.802, 118.979 149.750, 121.901 157.247 C 128.032 172.975, 147.848 184.315, 163.655 181.140 C 181.166 177.624, 192.935 165.755, 196.172 148.349 C 199.571 130.075, 186.570 110.431, 167.764 105.425 C 161.380 103.726, 152.924 103.748, 147.446 105.479 M 376.500 137.345 C 370.622 139.293, 364.912 142.442, 361.423 145.661 C 351.943 154.406, 346.694 169.317, 349.050 180.815 C 351.667 193.589, 358.989 203.325, 370.500 209.335 C 376.163 212.291, 377.118 212.467, 387.500 212.467 C 397.907 212.467, 398.823 212.297, 404.500 209.313 C 433.980 193.813, 432.758 152.413, 402.420 138.836 C 396.356 136.122, 382.580 135.330, 376.500 137.345 M 257.092 200.120 C 254.117 201.826, 249.599 205.309, 247.052 207.861 C 242.645 212.275, 234 223.281, 234 224.477 C 234 224.787, 232.910 226.767, 231.578 228.877 C 227.867 234.755, 224.162 246.672, 223.457 255 C 222.040 271.741, 227.426 285.733, 240.010 297.999 C 247.387 305.190, 262.613 315.112, 268.563 316.605 C 273.229 317.776, 275.851 316.045, 284.452 306.112 C 294.953 293.985, 296.182 291.354, 295.055 283.410 C 292.783 267.385, 288.843 259.476, 276.551 246.262 C 264.579 233.393, 262.974 229.326, 264.823 216.537 C 265.490 211.925, 266.705 206.254, 267.523 203.934 C 270.182 196.399, 266.151 194.925, 257.092 200.120 M 88.632 225.404 C 61.257 236.920, 55.762 272.346, 78.470 290.917 C 84.878 296.157, 88.813 297.976, 96.641 299.317 C 108.842 301.407, 121.496 297.460, 130.130 288.871 C 135.530 283.499, 138.061 279.037, 140.535 270.528 C 145.257 254.284, 136.772 235.523, 120.834 226.969 C 115.035 223.856, 113.655 223.542, 104.500 223.252 C 95.692 222.973, 93.800 223.230, 88.632 225.404 M 297.499 317.059 C 293.649 321.492, 290.350 325.542, 290.166 326.060 C 289.883 326.861, 295.184 334.490, 297.074 336 C 297.418 336.275, 299.455 338.804, 301.600 341.621 C 304.826 345.857, 331.582 379.888, 335.706 385 C 336.371 385.825, 343.111 394.321, 350.683 403.879 L 364.451 421.259 388.460 438.379 C 401.665 447.796, 413.454 456.175, 414.657 457 C 415.860 457.825, 426.363 465.250, 437.997 473.500 C 468.324 495.006, 468.352 495.021, 476.399 494.978 C 487.941 494.916, 496.056 485.565, 494.676 473.916 C 493.768 466.249, 491.811 463.389, 474.500 444.434 C 471.882 441.568, 456.518 424.513, 439.427 405.500 C 429.044 393.950, 418.738 382.488, 416.524 380.029 C 409.512 372.240, 407.546 370.645, 396.905 364.119 C 391.182 360.610, 384.925 356.738, 383 355.515 C 381.075 354.292, 373.425 349.556, 366 344.991 C 358.575 340.426, 348 333.897, 342.500 330.481 C 337 327.066, 326.954 320.836, 320.175 316.636 C 313.396 312.436, 307.095 309, 306.173 309 C 305.252 309, 301.348 312.627, 297.499 317.059 M 159.415 350.956 C 143.750 356.532, 133.470 371.308, 133.643 388 C 133.732 396.662, 135.482 402.070, 140.794 410.108 C 144.312 415.432, 145.750 416.677, 154 421.541 C 162.397 426.491, 174.381 427.402, 185.085 423.903 C 209.243 416.004, 218.715 385.018, 203.231 364.545 C 198.194 357.884, 192.431 353.667, 184.882 351.118 C 177.060 348.476, 166.570 348.409, 159.415 350.956" stroke="none" fill="#eb640d" fill-rule="evenodd"/></svg>