<svg xmlns="http://www.w3.org/2000/svg" width="779" height="191" viewBox="0 0 779 191" version="1.1"><path d="M 690.979 8.116 C 692.343 8.660, 694.165 9.644, 695.028 10.303 C 695.892 10.961, 695.538 10.488, 694.243 9.250 C 692.948 8.012, 691.126 7.029, 690.194 7.063 C 689.068 7.106, 689.331 7.458, 690.979 8.116 M 676.089 11.579 C 674.403 12.997, 672.076 15.585, 670.917 17.329 C 668.861 20.423, 668.882 20.416, 671.803 17.037 C 673.449 15.133, 676.079 12.548, 677.648 11.292 C 679.216 10.037, 680.197 9.008, 679.827 9.005 C 679.456 9.002, 677.774 10.160, 676.089 11.579 M 53.728 10.722 C 55.503 10.943, 58.653 10.946, 60.728 10.730 C 62.802 10.513, 61.350 10.333, 57.500 10.328 C 53.650 10.324, 51.952 10.501, 53.728 10.722 M 277.280 10.736 C 279.909 10.943, 283.959 10.940, 286.280 10.731 C 288.601 10.521, 286.450 10.352, 281.500 10.355 C 276.550 10.358, 274.651 10.530, 277.280 10.736 M 371.264 10.718 C 372.784 10.947, 375.034 10.941, 376.264 10.704 C 377.494 10.467, 376.250 10.279, 373.500 10.286 C 370.750 10.294, 369.744 10.488, 371.264 10.718 M 491.797 10.745 C 496.361 10.930, 503.561 10.929, 507.797 10.742 C 512.034 10.555, 508.300 10.404, 499.500 10.405 C 490.700 10.406, 487.234 10.559, 491.797 10.745 M 471.264 11.718 C 472.784 11.947, 475.034 11.941, 476.264 11.704 C 477.494 11.467, 476.250 11.279, 473.500 11.286 C 470.750 11.294, 469.744 11.488, 471.264 11.718 M 521.750 11.706 C 522.987 11.944, 525.013 11.944, 526.250 11.706 C 527.487 11.467, 526.475 11.272, 524 11.272 C 521.525 11.272, 520.513 11.467, 521.750 11.706 M 538.639 14.922 C 540.366 15.975, 542.018 17.435, 542.310 18.168 C 542.648 19.015, 542.871 19.071, 542.921 18.323 C 543.011 16.977, 538.294 12.998, 536.615 13.004 C 536.002 13.006, 536.913 13.869, 538.639 14.922 M 79.148 17.538 C 80.604 19.167, 82.740 22.075, 83.894 24 C 85.048 25.925, 85.994 27.005, 85.996 26.400 C 86.001 24.942, 80.840 17.886, 78.417 16.038 C 77.363 15.234, 77.692 15.909, 79.148 17.538 M 344.750 17.068 C 342.688 18.157, 341 19.271, 341 19.544 C 341 19.990, 348.899 16.298, 349.917 15.377 C 351.067 14.336, 348.064 15.319, 344.750 17.068 M 446.500 16.464 C 442.638 18.232, 444.434 18.258, 449 16.500 C 450.925 15.759, 451.825 15.138, 451 15.121 C 450.175 15.104, 448.150 15.708, 446.500 16.464 M 27.283 20.371 C 21.495 24.631, 16.158 30.432, 12.442 36.500 C 9.759 40.883, 11.184 39.354, 16.404 32.249 C 18.931 28.811, 23.811 23.931, 27.249 21.404 C 34.237 16.270, 34.563 16, 33.777 16 C 33.471 16, 30.548 17.967, 27.283 20.371 M 404.148 20.538 C 405.604 22.167, 407.740 25.075, 408.894 27 C 410.048 28.925, 410.994 30.005, 410.996 29.400 C 411.001 27.942, 405.840 20.886, 403.417 19.038 C 402.363 18.234, 402.692 18.909, 404.148 20.538 M 332.677 26.250 L 326.336 32.500 332.418 27.067 C 335.763 24.079, 338.928 21.267, 339.450 20.817 C 339.972 20.368, 340.089 20, 339.709 20 C 339.329 20, 336.165 22.813, 332.677 26.250 M 681.783 21.750 C 679.566 24.292, 677.746 28.079, 678.419 28.752 C 678.739 29.072, 679 28.871, 679 28.306 C 679 27.741, 680.111 25.641, 681.470 23.640 C 684.120 19.734, 684.256 18.915, 681.783 21.750 M 432.073 25.728 C 430.383 27.778, 429 29.903, 429 30.450 C 429 30.997, 429.745 30.332, 430.656 28.973 C 431.567 27.613, 433.220 25.488, 434.330 24.250 C 435.440 23.012, 436.078 22, 435.747 22 C 435.416 22, 433.763 23.678, 432.073 25.728 M 540.871 25.350 C 539.622 26.988, 537.753 27.628, 532.871 28.091 L 526.500 28.695 531.703 28.848 C 537.357 29.013, 541.556 27.599, 542.469 25.221 C 543.351 22.922, 542.680 22.976, 540.871 25.350 M 227.686 31.335 C 223.734 35.370, 219.687 40.095, 218.693 41.835 C 216.075 46.422, 217.263 45.718, 220.525 40.750 C 222.060 38.413, 226.212 33.688, 229.753 30.250 C 233.293 26.813, 235.893 24, 235.531 24 C 235.168 24, 231.638 27.301, 227.686 31.335 M 365.728 25.722 C 367.503 25.943, 370.653 25.946, 372.728 25.730 C 374.802 25.513, 373.350 25.333, 369.500 25.328 C 365.650 25.324, 363.952 25.501, 365.728 25.722 M 282.750 26.706 C 283.988 26.944, 286.012 26.944, 287.250 26.706 C 288.488 26.467, 287.475 26.272, 285 26.272 C 282.525 26.272, 281.512 26.467, 282.750 26.706 M 465.750 27.706 C 466.988 27.944, 469.012 27.944, 470.250 27.706 C 471.488 27.467, 470.475 27.272, 468 27.272 C 465.525 27.272, 464.512 27.467, 465.750 27.706 M 513.250 27.728 C 515.313 27.944, 518.688 27.944, 520.750 27.728 C 522.813 27.513, 521.125 27.336, 517 27.336 C 512.875 27.336, 511.188 27.513, 513.250 27.728 M 40.400 30.864 C 38.255 32.440, 35.381 35.027, 34.014 36.614 C 32.250 38.661, 32.686 38.439, 35.514 35.848 C 37.706 33.839, 41.075 31.253, 43 30.101 C 44.925 28.950, 46.005 28.006, 45.400 28.004 C 44.795 28.002, 42.545 29.289, 40.400 30.864 M 342.347 35.615 L 337.500 40.231 342 36.475 C 348.036 31.436, 348.498 31, 347.797 31 C 347.465 31, 345.012 33.077, 342.347 35.615 M 247.340 35.855 C 244.678 37.975, 241.600 40.784, 240.500 42.098 C 239.400 43.411, 240.525 42.685, 243 40.483 C 245.475 38.282, 248.850 35.487, 250.500 34.272 C 252.150 33.057, 253.203 32.049, 252.840 32.032 C 252.477 32.014, 250.002 33.735, 247.340 35.855 M 87.300 38 C 87.300 41.025, 87.487 42.263, 87.716 40.750 C 87.945 39.237, 87.945 36.763, 87.716 35.250 C 87.487 33.737, 87.300 34.975, 87.300 38 M 285.750 33.706 C 286.988 33.944, 289.012 33.944, 290.250 33.706 C 291.488 33.467, 290.475 33.272, 288 33.272 C 285.525 33.272, 284.512 33.467, 285.750 33.706 M 69.286 38.500 C 69.294 41.250, 69.488 42.256, 69.718 40.736 C 69.947 39.216, 69.941 36.966, 69.704 35.736 C 69.467 34.506, 69.279 35.750, 69.286 38.500 M 412.328 40.500 C 412.333 44.350, 412.513 45.802, 412.730 43.728 C 412.946 41.653, 412.943 38.503, 412.722 36.728 C 412.501 34.952, 412.324 36.650, 412.328 40.500 M 530.073 36.635 C 526.913 40.651, 527.279 46.433, 530.923 50.077 C 532.870 52.024, 534.790 52.966, 536.673 52.898 C 539.334 52.801, 539.295 52.747, 536.024 51.978 C 534.112 51.528, 531.750 50.174, 530.774 48.969 C 528.344 45.968, 528.490 39.918, 531.073 36.635 C 532.212 35.186, 532.920 34, 532.645 34 C 532.370 34, 531.212 35.186, 530.073 36.635 M 368.176 38.500 C 369.098 39.600, 370.035 42.300, 370.258 44.500 L 370.664 48.500 370.832 44.405 C 370.961 41.259, 370.478 39.868, 368.750 38.405 C 366.518 36.515, 366.513 36.516, 368.176 38.500 M 695.603 42.634 C 694.560 45.163, 692.134 49.317, 690.213 51.866 C 687.630 55.292, 687.384 55.891, 689.267 54.163 C 692.083 51.579, 698.335 40.494, 697.824 38.989 C 697.646 38.464, 696.646 40.104, 695.603 42.634 M 392.300 44 C 392.300 47.025, 392.487 48.263, 392.716 46.750 C 392.945 45.237, 392.945 42.763, 392.716 41.250 C 392.487 39.737, 392.300 40.975, 392.300 44 M 8.136 44.905 C 5.188 51.758, 5.548 52.749, 8.569 46.095 C 9.919 43.122, 10.855 40.521, 10.648 40.315 C 10.441 40.108, 9.311 42.174, 8.136 44.905 M 621.125 43.327 C 621.027 46.321, 621.636 47.790, 623.923 50.077 C 625.591 51.745, 627.845 52.961, 629.173 52.910 C 631.111 52.835, 630.978 52.668, 628.376 51.914 C 624.306 50.734, 622.764 48.760, 621.931 43.663 L 621.250 39.500 621.125 43.327 M 68.168 47.679 C 68.061 50.333, 68.573 52.430, 69.571 53.429 C 71.719 55.576, 72.694 55.425, 70.729 53.250 C 69.859 52.288, 68.965 49.700, 68.742 47.500 L 68.336 43.500 68.168 47.679 M 549.183 48.120 C 547.909 49.692, 545.434 51.392, 543.683 51.899 C 541.165 52.627, 540.973 52.838, 542.765 52.910 C 544.927 52.996, 553.050 46.662, 551.997 45.712 C 551.723 45.465, 550.457 46.549, 549.183 48.120 M 84.529 49.910 C 83.617 52.782, 81.282 54.314, 76.663 55.069 L 72.500 55.750 76.327 55.875 C 79.321 55.973, 80.790 55.364, 83.077 53.077 C 84.685 51.469, 86 49.669, 86 49.077 C 86 47.367, 85.190 47.825, 84.529 49.910 M 428.004 51.715 C 428.002 52.384, 429.397 54.521, 431.104 56.465 C 433.521 59.219, 434.903 59.967, 437.354 59.850 L 440.500 59.700 437.500 59.262 C 433.925 58.739, 432.295 57.513, 429.842 53.500 C 428.833 51.850, 428.006 51.047, 428.004 51.715 M 675.534 53.964 C 673.972 55.595, 672.313 56.693, 671.847 56.405 C 671.381 56.118, 671 56.675, 671 57.644 C 671 58.969, 671.991 58.438, 675 55.500 C 677.200 53.352, 679 51.460, 679 51.297 C 679 50.570, 678.185 51.197, 675.534 53.964 M 388.508 55.750 C 387.560 57.263, 385.371 59.796, 383.643 61.379 L 380.500 64.258 383.805 61.879 C 386.717 59.784, 391.994 53, 390.713 53 C 390.447 53, 389.455 54.237, 388.508 55.750 M 210.612 58.624 C 209.726 61.227, 209.033 63.839, 209.073 64.428 C 209.113 65.018, 210.012 63.061, 211.070 60.080 C 212.128 57.099, 212.821 54.487, 212.609 54.276 C 212.398 54.065, 211.499 56.021, 210.612 58.624 M 684.750 58.080 C 681.170 60.165, 683.157 60.996, 691.250 60.799 L 699.500 60.598 691.620 60.254 C 684.551 59.947, 683.933 59.764, 685.620 58.487 C 687.802 56.835, 687.295 56.598, 684.750 58.080 M 655 59 C 655 59.550, 653.075 60, 650.723 60 C 646.579 60, 642 62.130, 642 64.057 C 642 64.576, 642.900 64.100, 644 63 C 645.467 61.533, 647.333 61, 651 61 C 654.778 61, 656 60.633, 656 59.500 C 656 58.675, 655.775 58, 655.500 58 C 655.225 58, 655 58.450, 655 59 M 402 64.281 C 399.525 66.611, 396.375 69.320, 395 70.302 C 392.590 72.023, 392.617 72.024, 395.758 70.323 C 398.596 68.787, 408.193 59.961, 406.958 60.023 C 406.706 60.036, 404.475 61.952, 402 64.281 M 134.500 62.047 C 133.106 62.678, 133.712 62.768, 136.500 62.344 C 138.700 62.009, 140.688 61.569, 140.917 61.367 C 141.776 60.610, 136.420 61.177, 134.500 62.047 M 177.083 61.360 C 177.313 61.558, 179.975 61.972, 183 62.280 C 186.423 62.628, 187.745 62.519, 186.500 61.990 C 184.584 61.176, 176.222 60.616, 177.083 61.360 M 594 61.987 C 592.979 62.638, 593.776 62.748, 596.500 62.330 C 601.443 61.572, 602.285 60.995, 598.417 61.015 C 596.813 61.024, 594.825 61.461, 594 61.987 M 700.812 64.513 C 701.116 67.120, 700.625 68.466, 698.648 70.443 C 697.242 71.849, 696.488 73, 696.973 73 C 699.964 73, 703.640 63.132, 701.209 61.629 C 700.774 61.360, 700.595 62.658, 700.812 64.513 M 712.388 61.980 C 710.059 62.921, 705.998 67.631, 706.004 69.385 C 706.006 69.998, 706.869 69.087, 707.923 67.359 C 710.274 63.503, 710.883 63.115, 716.235 62.060 C 719.671 61.383, 719.917 61.210, 717.500 61.173 C 715.850 61.148, 713.550 61.511, 712.388 61.980 M 99.455 64.455 C 98.105 65.805, 97.012 67.492, 97.027 68.205 C 97.041 68.917, 97.818 68.266, 98.754 66.758 C 99.689 65.249, 101.589 63.597, 102.977 63.087 C 104.777 62.424, 104.986 62.135, 103.705 62.079 C 102.717 62.036, 100.805 63.105, 99.455 64.455 M 529.073 64.635 C 527.933 66.084, 527.018 67.997, 527.039 68.885 C 527.061 69.773, 527.695 69.083, 528.449 67.350 C 529.202 65.618, 530.647 63.719, 531.660 63.131 C 532.672 62.542, 532.970 62.047, 532.323 62.030 C 531.675 62.014, 530.212 63.186, 529.073 64.635 M 588.104 66.535 C 586.397 68.479, 585 70.369, 585 70.735 C 585 71.101, 585.341 70.973, 585.758 70.450 C 586.175 69.927, 587.834 68.037, 589.445 66.250 C 591.056 64.463, 592.112 63, 591.791 63 C 591.470 63, 589.811 64.591, 588.104 66.535 M 738.465 66.068 C 737.592 67.755, 737.018 69.534, 737.189 70.022 C 737.360 70.509, 738.254 69.128, 739.176 66.954 C 741.163 62.266, 740.718 61.711, 738.465 66.068 M 543.272 68 C 543.272 70.475, 543.467 71.487, 543.706 70.250 C 543.944 69.013, 543.944 66.987, 543.706 65.750 C 543.467 64.513, 543.272 65.525, 543.272 68 M 636.286 68.500 C 636.294 71.250, 636.488 72.256, 636.718 70.736 C 636.947 69.216, 636.941 66.966, 636.704 65.736 C 636.467 64.506, 636.279 65.750, 636.286 68.500 M 2.310 70.500 C 2.315 73.800, 2.502 75.029, 2.725 73.232 C 2.947 71.435, 2.943 68.735, 2.715 67.232 C 2.486 65.729, 2.304 67.200, 2.310 70.500 M 555.397 80 C 555.397 87.975, 555.553 91.237, 555.743 87.250 C 555.932 83.263, 555.932 76.737, 555.743 72.750 C 555.553 68.763, 555.397 72.025, 555.397 80 M 122.398 69.250 C 118.018 74.302, 116.717 76, 117.225 76 C 117.519 76, 119.418 73.975, 121.446 71.500 C 125.203 66.916, 125.947 65.157, 122.398 69.250 M 160.817 69.750 C 159.410 71.263, 157.491 73.850, 156.553 75.500 C 154.863 78.473, 154.864 78.478, 156.674 76.024 C 157.678 74.662, 159.784 72.074, 161.354 70.274 C 164.812 66.306, 164.396 65.901, 160.817 69.750 M 571.374 77.500 C 571.376 83.550, 571.541 85.896, 571.740 82.713 C 571.939 79.531, 571.937 74.581, 571.736 71.713 C 571.535 68.846, 571.372 71.450, 571.374 77.500 M 326.370 81 C 326.370 86.775, 326.535 89.138, 326.737 86.250 C 326.939 83.362, 326.939 78.638, 326.737 75.750 C 326.535 72.862, 326.370 75.225, 326.370 81 M 649.216 74.726 L 652.931 75.117 653.255 85.308 L 653.578 95.500 653.789 84.750 L 654 74 649.750 74.168 L 645.500 74.336 649.216 74.726 M 675.287 74.740 C 678.469 74.939, 683.419 74.937, 686.287 74.736 C 689.154 74.535, 686.550 74.372, 680.500 74.374 C 674.450 74.376, 672.104 74.541, 675.287 74.740 M 583.310 80.500 C 583.315 83.800, 583.502 85.029, 583.725 83.232 C 583.947 81.435, 583.943 78.735, 583.715 77.232 C 583.486 75.729, 583.304 77.200, 583.310 80.500 M 733.714 80.214 C 732.804 83.062, 732.225 85.558, 732.427 85.761 C 732.630 85.964, 733.563 83.821, 734.500 81 C 735.437 78.179, 736.016 75.683, 735.787 75.454 C 735.558 75.224, 734.625 77.367, 733.714 80.214 M 226.355 84.500 C 226.352 89.450, 226.521 91.601, 226.731 89.280 C 226.940 86.959, 226.943 82.909, 226.736 80.280 C 226.530 77.651, 226.358 79.550, 226.355 84.500 M 311.328 82.500 C 311.333 86.350, 311.513 87.802, 311.730 85.728 C 311.946 83.653, 311.943 80.503, 311.722 78.728 C 311.501 76.952, 311.324 78.650, 311.328 82.500 M 385.500 78.162 C 386.600 78.768, 388.870 80.442, 390.544 81.882 C 392.240 83.340, 391.924 82.839, 389.833 80.750 C 387.767 78.688, 385.498 77.014, 384.789 77.030 C 384.080 77.047, 384.400 77.556, 385.500 78.162 M 2.272 83 C 2.272 85.475, 2.467 86.487, 2.706 85.250 C 2.944 84.013, 2.944 81.987, 2.706 80.750 C 2.467 79.513, 2.272 80.525, 2.272 83 M 206.336 86 C 206.336 90.125, 206.513 91.813, 206.728 89.750 C 206.944 87.688, 206.944 84.313, 206.728 82.250 C 206.513 80.188, 206.336 81.875, 206.336 86 M 617.116 81.180 C 617.032 83.117, 616.376 83.981, 614.750 84.294 L 612.500 84.728 614.781 84.864 C 617.259 85.012, 618.441 83.167, 617.701 80.308 C 617.386 79.095, 617.194 79.382, 617.116 81.180 M 111.791 84.492 C 110.328 87.504, 109.349 88.575, 108.820 87.742 C 108.345 86.995, 108.025 87.860, 108.015 89.917 C 108.007 91.796, 108.172 93.146, 108.381 92.917 C 109.349 91.860, 114.968 80, 114.501 80 C 114.211 80, 112.992 82.022, 111.791 84.492 M 124.338 84.216 C 122.206 86.564, 117.849 93.293, 119.622 91.500 C 120.165 90.950, 121.846 88.813, 123.356 86.750 C 126.471 82.496, 128.636 81.953, 129.344 85.250 C 129.773 87.245, 129.809 87.218, 129.664 85.010 C 129.448 81.737, 126.931 81.361, 124.338 84.216 M 183.079 83.173 C 183.036 84.093, 181.541 86.305, 179.759 88.087 C 177.664 90.183, 177.260 90.931, 178.617 90.205 C 181.256 88.793, 184.283 84.264, 183.642 82.689 C 183.370 82.022, 183.123 82.235, 183.079 83.173 M 396.500 91 C 397.894 93.750, 399.259 96, 399.534 96 C 399.809 96, 398.894 93.750, 397.500 91 C 396.106 88.250, 394.741 86, 394.466 86 C 394.191 86, 395.106 88.250, 396.500 91 M 538.632 92.090 C 538.284 93.828, 538.053 96.431, 538.117 97.875 C 538.181 99.319, 538.637 98.069, 539.131 95.097 C 540.092 89.303, 539.683 86.835, 538.632 92.090 M 92.300 95 C 92.300 98.025, 92.487 99.263, 92.716 97.750 C 92.945 96.237, 92.945 93.763, 92.716 92.250 C 92.487 90.737, 92.300 91.975, 92.300 95 M 287.286 94.500 C 287.294 97.250, 287.488 98.256, 287.718 96.736 C 287.947 95.216, 287.941 92.966, 287.704 91.736 C 287.467 90.506, 287.279 91.750, 287.286 94.500 M 379.596 100.250 C 384.765 110.608, 390.890 119.336, 394.255 121.137 C 395.485 121.795, 394.397 120.239, 391.838 117.680 C 388.850 114.692, 385.169 109.086, 381.551 102.014 C 378.453 95.956, 375.707 91, 375.449 91 C 375.191 91, 377.057 95.162, 379.596 100.250 M 572.310 98.500 C 572.315 101.800, 572.502 103.029, 572.725 101.232 C 572.947 99.435, 572.943 96.735, 572.715 95.232 C 572.486 93.729, 572.304 95.200, 572.310 98.500 M 26.032 94.215 C 25.978 95.433, 32.158 102.019, 34.387 103.119 C 35.549 103.693, 35.070 102.993, 33.321 101.564 C 31.573 100.136, 29.225 97.737, 28.103 96.233 C 26.981 94.730, 26.049 93.822, 26.032 94.215 M 431.405 96.250 C 429.502 98.498, 429.502 98.498, 431.579 96.750 C 432.722 95.787, 434.626 95, 435.810 95 C 437.939 95, 438.364 95.845, 439.334 102 C 439.644 103.971, 439.756 103.798, 439.864 101.184 C 440.144 94.355, 435.368 91.569, 431.405 96.250 M 766.634 94.784 C 766.367 95.215, 767.353 95.552, 768.825 95.534 C 771.260 95.503, 771.527 95.878, 771.806 99.712 C 771.974 102.028, 771.611 104.953, 771 106.212 C 769.937 108.402, 769.956 108.417, 771.445 106.559 C 773.284 104.264, 773.513 96.913, 771.800 95.200 C 770.445 93.845, 767.367 93.597, 766.634 94.784 M 189.128 96.346 C 188.514 97.086, 186.204 98.506, 183.996 99.502 C 181.787 100.498, 180.166 101.499, 180.393 101.726 C 181.029 102.362, 188.468 98.346, 189.939 96.573 C 190.657 95.708, 191.020 95, 190.745 95 C 190.470 95, 189.742 95.605, 189.128 96.346 M 207.079 95.952 C 207.036 96.751, 205.546 99.001, 203.769 100.952 L 200.538 104.500 204.390 100.862 C 206.570 98.804, 208.006 96.634, 207.700 95.862 C 207.264 94.767, 207.142 94.785, 207.079 95.952 M 631.320 101 C 631.320 104.575, 631.502 106.037, 631.723 104.250 C 631.945 102.463, 631.945 99.537, 631.723 97.750 C 631.502 95.963, 631.320 97.425, 631.320 101 M 129.040 96.850 C 128.989 98.585, 135.377 105.001, 137.150 104.996 C 137.893 104.994, 137.064 104.117, 135.308 103.046 C 133.553 101.976, 131.433 99.840, 130.598 98.300 C 129.763 96.760, 129.062 96.108, 129.040 96.850 M 647.453 100.250 L 643.500 104.500 647.750 100.547 C 651.702 96.871, 652.460 96, 651.703 96 C 651.540 96, 649.627 97.912, 647.453 100.250 M 759.616 99.490 C 756.929 101.348, 754.229 103.412, 753.616 104.075 C 753.002 104.739, 755.313 103.401, 758.750 101.103 C 762.188 98.806, 765 96.717, 765 96.463 C 765 95.776, 764.906 95.829, 759.616 99.490 M 256.564 101.783 C 253.039 106.008, 252.969 106.187, 255.900 103.500 C 258.676 100.954, 261.720 96.925, 260.785 97.033 C 260.628 97.051, 258.729 99.188, 256.564 101.783 M 577.615 100.500 C 576.727 101.875, 575.272 104.237, 574.381 105.750 L 572.763 108.500 574.774 106.066 C 577.151 103.191, 580.302 98, 579.672 98 C 579.429 98, 578.503 99.125, 577.615 100.500 M 591 105.500 C 588.216 109.625, 586.164 113, 586.439 113 C 586.714 113, 589.216 109.625, 592 105.500 C 594.784 101.375, 596.836 98, 596.561 98 C 596.286 98, 593.784 101.375, 591 105.500 M 722.910 102.067 C 720.935 104.230, 719.651 106, 720.056 106 C 720.817 106, 727 99.291, 727 98.465 C 727 97.671, 726.608 98.017, 722.910 102.067 M 402.432 101.546 C 405.055 106.090, 409.916 109.024, 414.562 108.866 C 418.399 108.736, 418.374 108.715, 413.578 108.051 C 409.424 107.476, 408.033 106.678, 404.665 102.935 C 401.555 99.478, 401.062 99.172, 402.432 101.546 M 549.838 104.520 C 546.724 107.534, 544.489 110, 544.872 110 C 545.255 110, 548.013 107.525, 551 104.500 C 558.022 97.390, 557.191 97.404, 549.838 104.520 M 9.556 104.500 C 11.784 108.412, 14.782 111.694, 18.500 114.291 C 20.183 115.467, 19.281 114.218, 16.444 111.444 C 13.663 108.725, 10.591 105.375, 9.618 104 C 7.895 101.568, 7.894 101.581, 9.556 104.500 M 113.116 105.098 C 112.502 106.858, 112.032 108.794, 112.070 109.399 C 112.109 110.005, 112.786 108.739, 113.574 106.587 C 114.363 104.435, 114.833 102.500, 114.620 102.286 C 114.406 102.073, 113.729 103.338, 113.116 105.098 M 233.689 105.750 C 235.571 107.614, 237.937 108.963, 239.235 108.914 C 241.174 108.840, 241.083 108.703, 238.604 107.962 C 237.012 107.485, 234.516 106.061, 233.058 104.798 C 231.600 103.534, 231.884 103.963, 233.689 105.750 M 330.880 104.750 C 332.253 107.345, 336.759 110.574, 337.698 109.635 C 338.047 109.286, 337.764 109, 337.068 109 C 336.372 109, 334.427 107.537, 332.746 105.750 C 330.612 103.481, 330.049 103.179, 330.880 104.750 M 438 105.892 C 438 107.855, 428.385 117.312, 423.597 120.058 C 420.794 121.666, 418.974 122.985, 419.554 122.991 C 420.134 122.996, 422.609 121.730, 425.054 120.178 C 431.263 116.238, 441.218 105, 438.500 105 C 438.225 105, 438 105.401, 438 105.892 M 746.116 107.318 L 746 110.136 749 108 C 752.572 105.456, 753.047 104.268, 749.585 106.536 C 747.344 108.004, 747.136 107.988, 746.701 106.309 C 746.401 105.152, 746.190 105.516, 746.116 107.318 M 729.042 111.908 C 727.690 114.796, 725.094 118.466, 723.274 120.065 C 720.114 122.839, 718.662 123.442, 713 124.334 C 711.018 124.646, 711.184 124.756, 713.800 124.864 C 715.614 124.939, 718.360 124.348, 719.901 123.551 C 723.019 121.939, 728.945 115.602, 729.100 113.715 C 729.155 113.047, 729.598 113.625, 730.086 115 C 730.880 117.237, 730.926 117.165, 730.526 114.320 C 730.276 112.548, 730.554 110.982, 731.153 110.782 C 731.744 110.585, 732.064 109.577, 731.864 108.541 C 731.608 107.219, 730.768 108.222, 729.042 111.908 M 53.280 108.736 C 55.909 108.943, 59.959 108.940, 62.280 108.731 C 64.601 108.521, 62.450 108.352, 57.500 108.355 C 52.550 108.358, 50.651 108.530, 53.280 108.736 M 654.377 110.250 C 651.424 113.619, 649.699 116, 650.210 116 C 650.460 116, 652.112 114.200, 653.880 112 C 657.312 107.729, 657.660 106.503, 654.377 110.250 M 153 109.557 C 153 110.511, 158.052 118, 158.695 118 C 159.174 118, 158.567 116.949, 155.293 112.110 C 154.032 110.246, 153 109.097, 153 109.557 M 312.958 114.750 L 308.500 119.500 313.037 115.251 C 317.377 111.186, 317.652 111.078, 319.399 112.751 C 321.151 114.431, 321.170 114.411, 319.871 112.250 C 319.127 111.013, 318.271 110, 317.968 110 C 317.664 110, 315.410 112.138, 312.958 114.750 M 462.147 114.795 C 462.025 119.198, 462.414 120.505, 464.455 122.545 C 466.436 124.527, 467.834 124.973, 471.705 124.859 L 476.500 124.718 471.275 124.084 C 468.401 123.735, 465.479 122.879, 464.783 122.183 C 464.087 121.487, 463.242 118.348, 462.906 115.209 L 462.294 109.500 462.147 114.795 M 756.133 116.479 C 750.981 119.975, 746.256 123.381, 745.633 124.049 C 745.010 124.716, 749.337 122.043, 755.250 118.109 C 761.163 114.174, 766 110.740, 766 110.478 C 766 109.768, 766.215 109.638, 756.133 116.479 M 270.004 111.518 C 269.997 113.362, 274.994 119.928, 277.269 121.064 C 279.129 121.992, 279.054 121.789, 276.820 119.839 C 275.347 118.552, 273.211 115.925, 272.074 114 C 270.937 112.075, 270.006 110.958, 270.004 111.518 M 260.924 114.641 C 259.591 116.093, 256.499 118.568, 254.054 120.141 C 251.609 121.713, 250.079 123, 250.654 123 C 252.056 123, 258.909 117.914, 261.924 114.636 C 263.258 113.186, 264.124 112, 263.849 112 C 263.574 112, 262.258 113.188, 260.924 114.641 M 616.039 112.800 C 615.977 114.878, 618.595 119.335, 621.148 121.495 L 623.500 123.486 621.304 120.986 C 620.096 119.611, 618.426 116.914, 617.593 114.993 C 616.760 113.072, 616.061 112.085, 616.039 112.800 M 357 114.799 C 357 115.421, 355.539 117.594, 353.754 119.627 C 351.546 122.142, 351.189 122.899, 352.638 121.994 C 355.079 120.469, 358.489 115.155, 357.597 114.264 C 357.269 113.936, 357 114.176, 357 114.799 M 322.434 116.850 C 324.911 119.686, 330.919 123.415, 331.719 122.614 C 332.057 122.276, 331.873 122, 331.310 122 C 330.748 122, 328.085 120.343, 325.394 118.318 C 322.702 116.293, 321.370 115.633, 322.434 116.850 M 554.922 116.594 C 554.194 117.471, 551.326 119.492, 548.549 121.085 C 545.772 122.678, 543.974 123.985, 544.554 123.991 C 546.012 124.004, 554.198 118.710, 555.872 116.671 C 556.627 115.752, 557.020 115, 556.745 115 C 556.470 115, 555.649 115.718, 554.922 116.594 M 22 116.493 C 22 117.170, 30.123 121.211, 30.575 120.758 C 30.785 120.549, 28.941 119.398, 26.478 118.202 C 24.015 117.005, 22 116.236, 22 116.493 M 481 118.294 C 481 119.190, 479.988 120.895, 478.750 122.084 C 476.507 124.240, 476.507 124.243, 478.682 123.124 C 480.882 121.993, 482.687 118.354, 481.591 117.258 C 481.266 116.933, 481 117.399, 481 118.294 M 160.552 119.084 C 161.237 120.193, 167.039 123.294, 167.524 122.810 C 167.709 122.624, 166.087 121.500, 163.919 120.313 C 161.751 119.125, 160.236 118.572, 160.552 119.084 M 196.500 120.566 C 193.750 121.891, 192.080 122.980, 192.790 122.987 C 194.256 123.002, 202 119.212, 202 118.480 C 202 117.877, 202.389 117.729, 196.500 120.566 M 220.552 119.084 C 221.237 120.193, 227.039 123.294, 227.524 122.810 C 227.709 122.624, 226.087 121.500, 223.919 120.313 C 221.751 119.125, 220.236 118.572, 220.552 119.084 M 663.944 119.316 C 665.541 121.372, 670.246 124.020, 672.200 123.961 C 672.915 123.939, 671.938 123.244, 670.030 122.417 C 668.121 121.589, 665.654 120.144, 664.547 119.206 C 662.629 117.580, 662.601 117.585, 663.944 119.316 M 694.500 120.578 C 692.300 121.892, 690.950 122.973, 691.500 122.980 C 692.702 122.995, 699 119.246, 699 118.515 C 699 117.861, 699.207 117.766, 694.500 120.578 M 94 119.691 C 94 120.219, 95.076 121.662, 96.391 122.897 C 98.161 124.560, 99.653 125.036, 102.141 124.732 L 105.500 124.320 101.823 124.160 C 99.158 124.044, 97.574 123.274, 96.073 121.365 C 94.933 119.916, 94 119.163, 94 119.691 M 729 120.548 C 729 121.399, 727.763 123.232, 726.250 124.621 L 723.500 127.146 726.750 124.885 C 728.538 123.641, 730 121.809, 730 120.812 C 730 119.815, 729.775 119, 729.500 119 C 729.225 119, 729 119.697, 729 120.548 M 561.667 121.926 C 563.318 123.719, 565.100 124.352, 569.167 124.589 L 574.500 124.901 569.192 124.053 C 566.272 123.586, 562.897 122.387, 561.692 121.389 L 559.500 119.574 561.667 121.926 M 625.165 124.123 C 625.899 124.589, 628.750 124.941, 631.500 124.906 C 637.488 124.830, 636.493 124.323, 629.165 123.718 C 626.044 123.460, 624.384 123.628, 625.165 124.123 M 50.287 124.740 C 53.469 124.939, 58.419 124.937, 61.287 124.736 C 64.154 124.535, 61.550 124.372, 55.500 124.374 C 49.450 124.376, 47.104 124.541, 50.287 124.740 M 176.250 124.728 C 178.313 124.944, 181.688 124.944, 183.750 124.728 C 185.813 124.513, 184.125 124.336, 180 124.336 C 175.875 124.336, 174.188 124.513, 176.250 124.728 M 235.750 124.723 C 237.537 124.945, 240.463 124.945, 242.250 124.723 C 244.037 124.502, 242.575 124.320, 239 124.320 C 235.425 124.320, 233.963 124.502, 235.750 124.723 M 287.750 124.723 C 289.538 124.945, 292.462 124.945, 294.250 124.723 C 296.038 124.502, 294.575 124.320, 291 124.320 C 287.425 124.320, 285.962 124.502, 287.750 124.723 M 338.768 124.725 C 340.565 124.947, 343.265 124.943, 344.768 124.715 C 346.271 124.486, 344.800 124.304, 341.500 124.310 C 338.200 124.315, 336.971 124.502, 338.768 124.725 M 405.750 124.723 C 407.538 124.945, 410.462 124.945, 412.250 124.723 C 414.038 124.502, 412.575 124.320, 409 124.320 C 405.425 124.320, 403.962 124.502, 405.750 124.723 M 535.250 124.716 C 536.763 124.945, 539.237 124.945, 540.750 124.716 C 542.263 124.487, 541.025 124.300, 538 124.300 C 534.975 124.300, 533.737 124.487, 535.250 124.716 M 676.728 124.722 C 678.503 124.943, 681.653 124.946, 683.728 124.730 C 685.802 124.513, 684.350 124.333, 680.500 124.328 C 676.650 124.324, 674.952 124.501, 676.728 124.722 M 712.926 136.108 C 707.741 141.117, 704.175 144.731, 705 144.139 C 707.391 142.423, 723.493 127, 722.893 127 C 722.595 127, 718.110 131.099, 712.926 136.108 M 740.556 136.556 C 740.179 138.562, 740.071 140.404, 740.315 140.649 C 740.560 140.893, 741.068 139.451, 741.444 137.444 C 741.821 135.438, 741.929 133.596, 741.685 133.351 C 741.440 133.107, 740.932 134.549, 740.556 136.556 M 717.330 146.427 C 712.861 151.449, 708.322 158, 709.311 158 C 709.544 158, 710.965 156.140, 712.470 153.866 C 713.974 151.593, 717.017 147.768, 719.230 145.366 C 721.444 142.965, 723.008 141, 722.707 141 C 722.406 141, 719.986 143.442, 717.330 146.427 M 700.676 149.250 C 697.435 153.593, 695.708 157.042, 696.419 157.752 C 696.739 158.072, 697 157.854, 697 157.267 C 697 156.681, 698.545 153.906, 700.432 151.100 C 704.265 145.405, 704.419 144.235, 700.676 149.250 M 735.714 154.214 C 734.804 157.062, 734.225 159.558, 734.427 159.761 C 734.630 159.964, 735.563 157.821, 736.500 155 C 737.437 152.179, 738.016 149.683, 737.787 149.454 C 737.558 149.224, 736.625 151.367, 735.714 154.214 M 718.202 162.522 C 717.005 164.985, 716.236 167, 716.493 167 C 717.170 167, 721.211 158.877, 720.758 158.425 C 720.549 158.215, 719.398 160.059, 718.202 162.522 M 730.208 167.532 C 728.454 171.089, 727.233 174, 727.495 174 C 728.165 174, 734.211 161.878, 733.764 161.431 C 733.563 161.229, 731.962 163.975, 730.208 167.532 M 722 179.184 C 719.525 181.441, 718.400 182.811, 719.500 182.229 C 721.381 181.235, 727.881 174.952, 726.937 175.041 C 726.697 175.064, 724.475 176.928, 722 179.184 M 695.975 178.804 C 697.242 181.336, 702.635 185.013, 705 184.957 C 705.825 184.938, 704.925 184.255, 703 183.439 C 701.075 182.624, 698.448 180.729, 697.161 179.228 C 695.163 176.897, 694.990 176.835, 695.975 178.804" stroke="none" fill="#e6a57c" fill-rule="evenodd"/><path d="M 684.071 8.274 C 672.987 10.562, 661.994 29.340, 656.862 54.750 L 655.600 61 650.800 61 C 645.109 61, 642 63.448, 642 67.929 C 642 72.111, 644.356 74, 649.571 74 L 654 74 654 84.072 L 654 94.144 649.250 99.266 C 641.031 108.128, 638.688 110, 635.812 110 C 630.258 110, 629.678 103.419, 633.520 84 C 636.444 69.215, 636.685 63.477, 634.418 62.607 C 631.373 61.438, 626.202 62.016, 624.042 63.765 C 621.893 65.505, 618 77.042, 618 81.669 C 618 84.562, 617.335 84.891, 609.917 85.666 C 604.042 86.281, 603.708 86.205, 604.402 84.410 C 607.695 75.893, 607.460 67.460, 603.827 63.827 C 600.895 60.895, 593.912 61.752, 589.970 65.529 C 584.986 70.304, 583.670 74.361, 584.270 83.111 L 584.802 90.868 579.172 99.614 L 573.542 108.360 572.793 104.930 C 572.380 103.043, 571.681 93.037, 571.238 82.693 C 570.604 67.901, 570.119 63.687, 568.966 62.958 C 566.672 61.507, 560.672 61.841, 558.223 63.557 C 556.072 65.063, 556 65.672, 556 82.341 L 556 99.568 550.719 104.784 C 544.952 110.479, 540.931 111.609, 539.035 108.066 C 537.357 104.929, 537.874 96.314, 540.510 83.500 C 541.868 76.900, 542.984 69.636, 542.989 67.357 C 543.001 62.765, 542.057 62, 536.373 62 C 530.917 62, 528.601 65.153, 526.028 76.082 C 520.449 99.779, 521.035 112.799, 528.010 120.131 C 531.475 123.774, 532.035 123.999, 537.595 123.991 C 542.269 123.983, 544.553 123.377, 548.549 121.085 C 551.326 119.492, 554.194 117.471, 554.922 116.594 C 556.572 114.606, 559 114.517, 559 116.444 C 559 117.239, 560.013 119.066, 561.252 120.506 C 563.654 123.299, 569.802 124.768, 574.332 123.632 C 577.833 122.753, 583.358 116.878, 590.068 106.899 L 595.882 98.252 601.191 99.222 C 604.111 99.756, 608.356 99.940, 610.625 99.633 L 614.750 99.073 615.446 105.286 C 616.244 112.403, 618.728 118.628, 621.892 121.439 C 623.344 122.729, 626.011 123.518, 629.857 123.796 C 637.563 124.353, 643.085 121.785, 650.605 114.145 L 656.407 108.251 659.328 112.856 C 660.934 115.389, 662.980 118.057, 663.874 118.785 C 672.895 126.133, 688.079 125.776, 699.058 117.959 L 701.971 115.885 705.830 119.942 C 708.987 123.261, 710.365 124, 713.395 124 C 720.083 124, 724.700 120.402, 729.436 111.500 C 731.743 107.165, 732.031 106.914, 731.601 109.610 C 731.329 111.320, 730.804 114.994, 730.436 117.775 C 729.830 122.340, 729.316 123.151, 725.132 126.148 C 722.585 127.973, 716.195 133.748, 710.934 138.983 C 699.757 150.102, 695.135 158.089, 694.346 167.644 C 693.718 175.252, 695.941 179.613, 702.074 182.800 C 709.027 186.413, 716.007 184.878, 723.346 178.121 C 729.250 172.685, 737.424 152.361, 741.527 132.915 L 743.127 125.330 757.093 115.973 C 771.584 106.264, 772.434 105.279, 771.824 98.888 C 771.310 93.511, 768.706 94.119, 757 102.349 C 751.225 106.409, 746.367 109.393, 746.205 108.981 C 745.972 108.387, 748.961 88.746, 752.460 67.873 C 753.197 63.477, 751.010 61.601, 745.937 62.282 C 743.433 62.617, 741.010 63.633, 740.257 64.663 C 739.535 65.650, 737.621 70.743, 736.002 75.979 C 732.460 87.442, 726.179 100.651, 722.784 103.778 C 719.886 106.448, 717.445 105.910, 716.566 102.408 C 715.877 99.661, 717.993 85.569, 720.904 73.527 C 723.123 64.347, 722.538 62, 718.030 62 C 713.427 62, 710.155 63.697, 708.035 67.183 C 705.745 70.948, 702.436 84.556, 701.452 94.255 C 700.782 100.854, 700.649 101.108, 695.696 105.255 C 690.805 109.349, 690.380 109.500, 683.718 109.500 C 677.317 109.500, 676.643 109.290, 674.531 106.641 C 671.047 102.272, 670 97.301, 670 85.134 L 670 74 680.250 73.994 C 685.888 73.991, 692.192 73.519, 694.259 72.945 C 698.660 71.723, 701.277 68.281, 700.823 64.315 L 700.500 61.500 691.750 61.211 C 686.938 61.052, 683 60.697, 683 60.422 C 683 60.148, 684.827 58.028, 687.060 55.711 C 695.855 46.589, 701.229 30.237, 698.985 19.428 C 697.038 10.048, 692.375 6.561, 684.071 8.274 M 45 12.446 C 37.808 14.470, 33.917 16.425, 27.249 21.366 C 9.952 34.182, 0.209 59.976, 3.201 85.031 C 5.469 104.017, 18.576 117.874, 38.750 122.615 C 49.246 125.081, 69.754 124.069, 81.500 120.504 C 86.450 119.001, 91.175 117.599, 92 117.388 C 92.871 117.165, 94.345 118.367, 95.514 120.252 C 97.189 122.954, 98.229 123.551, 101.705 123.805 C 106.854 124.180, 108.190 122.486, 111.127 111.852 C 113.680 102.612, 121.006 87.257, 124.357 84.123 C 128.500 80.249, 130.028 81.788, 129.400 89.206 C 128.961 94.404, 129.220 96.057, 130.890 98.701 C 134.017 103.653, 138.229 105.361, 145.613 104.672 L 151.836 104.091 152.951 107.289 C 154.913 112.916, 158.940 117.648, 164.292 120.614 C 169.106 123.281, 170.295 123.500, 180 123.500 C 189.405 123.500, 191.123 123.208, 196.468 120.705 C 199.751 119.168, 204.759 116.157, 207.598 114.014 L 212.759 110.117 215.736 113.822 C 220.638 119.921, 228.047 123.309, 237.579 123.809 C 244.157 124.154, 246.535 123.857, 250.214 122.230 C 256.014 119.664, 262.392 113.894, 265.737 108.187 L 268.362 103.706 269.979 108.665 C 272.255 115.645, 275.294 119.480, 280.579 122.038 C 284.430 123.903, 286.347 124.177, 292.822 123.793 C 301.900 123.255, 305.350 121.674, 312.776 114.650 C 317.828 109.873, 318.237 109.675, 319.242 111.525 C 321.187 115.104, 328.187 120.906, 332.588 122.587 C 335.580 123.730, 338.919 124.111, 343.424 123.824 C 354.525 123.117, 357.475 118.622, 361.027 97 C 362.247 89.575, 363.615 83.098, 364.067 82.606 C 365.548 80.994, 370.684 84.032, 373.735 88.323 C 375.369 90.620, 379.051 97.089, 381.918 102.697 C 387.499 113.615, 393.095 120.306, 398.549 122.585 C 403.988 124.857, 414.615 124.392, 420.565 121.622 C 430.047 117.207, 439 107.401, 439 101.432 C 439 93.065, 435.775 92.930, 428.026 100.973 C 421.966 107.263, 418.876 109, 413.747 109 C 408.327 109, 404.453 105.298, 398.486 94.417 C 392.807 84.060, 389.730 80.381, 384.500 77.699 L 381.500 76.160 384.500 75.028 C 396.725 70.416, 405.308 63.161, 409.444 53.946 C 411.874 48.530, 412.157 46.844, 411.849 39.575 C 411.549 32.507, 411.075 30.657, 408.500 26.517 C 402.450 16.791, 393.047 12.177, 377.505 11.306 C 346.909 9.591, 323.197 27.451, 314.847 58.500 C 313.092 65.026, 312.675 69.519, 312.581 82.880 L 312.466 99.259 307.983 103.245 C 302.961 107.710, 300.249 109, 295.889 109 C 288.708 109, 286.064 101.135, 287.990 85.500 C 289.095 76.527, 294.090 50.638, 295.996 44.007 C 297.390 39.156, 297.281 38.281, 295 36 C 293.558 34.558, 291.667 34, 288.223 34 C 281.121 34, 279.488 35.645, 277.563 44.734 C 267.328 93.053, 258.471 109, 241.868 109 C 237.018 109, 236.366 108.696, 232.456 104.615 C 227.016 98.938, 225.509 93.050, 226.308 80.592 C 228.452 47.187, 248.502 25.986, 277.932 26.006 C 285.534 26.011, 289.292 26.432, 301.704 28.669 C 307.498 29.714, 313.333 21.218, 310.203 16.294 C 307.843 12.581, 280.297 9.698, 267.864 11.863 C 251.549 14.704, 238.562 21.270, 228.027 32.005 C 219.878 40.307, 214.848 48.783, 210.818 61 C 207.997 69.553, 207.658 71.896, 207.425 84.500 L 207.165 98.500 202.982 102.225 C 193.883 110.328, 180.766 113.654, 173.371 109.733 C 168.184 106.983, 168.426 105.348, 174.305 103.424 C 186.986 99.273, 193.801 93.967, 196.455 86.178 C 201.722 70.721, 190.986 59.121, 174.860 62.843 C 164.936 65.134, 156.928 72.953, 153.193 84 C 151.508 88.984, 151.060 89.500, 148.417 89.500 C 145.577 89.500, 145.501 89.369, 145.551 84.500 C 145.578 81.750, 145.970 76.721, 146.421 73.325 C 147.203 67.436, 147.116 67.025, 144.541 64.450 C 142.137 62.046, 141.338 61.819, 137.251 62.379 C 127.639 63.696, 120.023 70.740, 112.279 85.471 C 109.936 89.928, 108.037 92.610, 108.011 91.500 C 107.985 90.400, 109.169 84.050, 110.642 77.389 C 112.116 70.729, 113.038 64.541, 112.692 63.639 C 111.963 61.741, 107.787 61.481, 103.278 63.053 C 98.091 64.861, 94.399 75.323, 93.300 91.327 C 92.582 101.781, 92.708 101.651, 79.500 105.509 C 58.745 111.570, 38.927 109.109, 29.860 99.343 C 24.281 93.335, 22.620 88.379, 22.205 76.500 C 21.557 57.994, 25.808 45.154, 35.973 34.910 C 40.039 30.812, 42.985 28.830, 47.010 27.484 C 57.764 23.888, 66.872 26.053, 69.076 32.729 C 69.757 34.793, 69.902 38.864, 69.463 43.556 C 68.605 52.706, 69.956 55, 76.200 55 C 83.663 55, 87.640 47.395, 86.750 34.825 C 85.956 23.599, 79.789 15.500, 69.771 12.525 C 63.671 10.713, 51.295 10.674, 45 12.446 M 468 12.526 C 450.215 14.742, 437.609 19.713, 432.377 26.573 C 429.517 30.321, 426.997 37.752, 427.006 42.409 C 427.021 51.152, 431.958 59, 437.443 59 C 441.538 59, 446.538 54.773, 445.472 52.212 C 440.756 40.882, 441.983 35.064, 449.933 31.056 C 456.039 27.977, 477 25.469, 477 27.817 C 477 28.266, 475.233 38.054, 473.073 49.567 C 470.913 61.080, 468.668 73.875, 468.083 78 C 467.497 82.125, 466.120 91.125, 465.022 98 C 462.417 114.312, 462.412 119.412, 465 122 C 467.779 124.779, 475.784 124.781, 478.765 122.004 C 481.034 119.890, 481.252 118.962, 482.990 104 C 485.333 83.827, 494.362 31.131, 496.011 28 C 496.695 26.702, 499.531 26.605, 517.036 27.277 C 534.462 27.945, 537.596 27.839, 539.619 26.514 C 544.327 23.429, 543.593 17.392, 538.169 14.587 C 531.376 11.075, 489.512 9.844, 468 12.526 M 681.727 21.750 C 679.683 24.008, 677.174 29.917, 675.463 36.500 C 673.612 43.625, 670.911 58.245, 671.363 58.697 C 672.235 59.568, 681.095 48.492, 683.366 43.692 C 689.445 30.840, 688.230 14.564, 681.727 21.750 M 359 26.364 C 351.268 28.603, 346.679 31.251, 341.346 36.554 C 332.138 45.708, 327.333 58.527, 326.299 76.695 C 325.415 92.219, 328.587 104.717, 334.372 108.508 C 337.303 110.429, 339.503 109.642, 340.888 106.178 C 342.310 102.620, 345.882 82.215, 345.201 81.534 C 344.907 81.240, 343.779 81, 342.694 81 C 338.634 81, 336.564 74.478, 339.425 70.704 C 340.174 69.717, 342.390 68.649, 344.348 68.331 C 348.282 67.693, 347.587 69.510, 351.170 50.500 C 353.179 39.847, 355.760 37, 363.410 37 C 370.272 37, 371.148 40.877, 368.044 57.500 C 367.016 63, 366.341 67.667, 366.542 67.870 C 367.656 68.999, 376.459 66.478, 381.076 63.709 C 395.682 54.951, 397.147 34.946, 383.684 28.108 C 377.899 25.170, 366.025 24.331, 359 26.364 M 536.313 33.102 C 531.972 34.358, 529 38.391, 529 43.024 C 529 47.826, 531.488 50.871, 536.299 51.955 C 541.442 53.114, 546.309 51.609, 549.436 47.894 C 554.221 42.207, 552.168 34.974, 545.221 33.044 C 540.946 31.857, 540.609 31.859, 536.313 33.102 M 630.016 33.024 C 623.110 34.648, 619.610 43.143, 623.537 48.749 C 626.359 52.778, 635.793 53.608, 640.558 50.246 C 644.764 47.279, 646.236 40.210, 643.471 36.261 C 642.218 34.473, 635.960 31.729, 634 32.108 C 633.725 32.161, 631.932 32.573, 630.016 33.024 M 172.911 77.089 C 169.860 80.140, 167.047 86.936, 167.022 91.317 C 167.002 94.812, 167.190 95.078, 169.250 94.464 C 174.251 92.972, 180.289 89.403, 182.090 86.873 C 184.235 83.862, 184.623 78.023, 182.800 76.200 C 180.859 74.259, 175.236 74.764, 172.911 77.089 M 718.791 145.117 C 709.608 154.446, 704.484 166.120, 707.459 170.934 C 708.995 173.419, 712.995 171.990, 715.961 167.895 C 720.239 161.990, 726.826 142.898, 725.704 139.656 C 725.484 139.020, 722.373 141.478, 718.791 145.117" stroke="none" fill="#ea6612" fill-rule="evenodd"/></svg>